<?xml version="1.0" encoding="utf-8"?>
<!-- Generator: Adobe Illustrator 26.1.0, SVG Export Plug-In . SVG Version: 6.00 Build 0)  -->
<svg version="1.0" id="Layer_1" xmlns="http://www.w3.org/2000/svg" xmlns:xlink="http://www.w3.org/1999/xlink" x="0px" y="0px"
	 viewBox="0 0 371.5 135.8" style="enable-background:new 0 0 371.5 135.8;" xml:space="preserve">
<style type="text/css">
	.st0{fill-rule:evenodd;clip-rule:evenodd;fill:#FFFFFF;}
</style>
<path class="st0" d="M181,40.6c0.2,0,0.5,0,0.7,0c0.6-0.8,1.1-0.9,1.9-1.4c2.6-1.9,5-4.3,7.7-6.2c1.5-1.1,2.5-3.1,4.8-3.4
	c1.4,1.4,3.4,2.2,5,3.4c1.3,0.9,2.7,2.2,4.1,3.1c1.3,0.8,2.4,0.4,2.6,2.4c0.1,5.2,0.2,10.4,0.2,15.6c0.3,3.2-0.2,8.6-1,11.8
	c-0.6,2.4-0.2,4.1-1,6.2c-3,8.6-8.8,14.3-16.6,18.2c-6,3-19.1,3.7-22.8-1.9c0.4-0.1,0.4-0.2,1-0.2c1.1,1,2.5,1.2,4.1,1.7
	c6.2,2,12.1-0.6,15.4-3.8c6.2-6.1,7.2-14.5,7.2-27.1c0-3.6,0.6-8.7-0.5-11.5c-1-2.7-4.6-3.4-6.5-5.3c-0.5,0.1-6.4,4.3-6.5,4.6
	c0,0.4,0,0.8,0,1.2c0.8,1.2,0.3,5,0.2,6.7c-0.1,4,0.3,10.8-0.5,15.4c0.8,2.1,3.2,2.6,3.4,5.3c-3.5,0.9-6.6,3.3-8.9,5.5
	c-1.3,1.2-2.1,3.5-4.1,3.8c-2.1-2.2-4.5-4.7-7-6.5c-1.2-0.9-2.5-0.8-2.6-2.9c2.5-1.6,5.5-5.1,6.2-8.4c-0.1-3.3-0.2-6.6-0.2-9.8
	c0.1-5.5,0.2-11,0.2-16.6c0.2-3.5-0.1-9.7,0-14.6c0-2.5,0.5-5.2-0.2-7.7c-0.6-1.9-3.6-5.9-5-7.2c0.7-1.2,3.2-4.5,4.6-4.8
	c1.2,1.1,5.1,3.4,6.5,2.9c1.9-0.7,2-2.5,3.1-4.1c2.1-2.9,6.1-6,10.8-4.1c0.1,0.2,0.2,0.5,0.2,0.7c-0.1,0-0.2,0-0.2,0
	c-1,0.6-2.6,0.2-3.4,1c-2.8,2.7-1.6,6.7-2.6,11.3c-0.6,2.9-0.4,7.9,0,10.8c0.1,0.8-0.2,2.6-0.2,3.8C181.2,32.6,181.2,36.8,181,40.6z
	 M235.4,0c1.9-0.1,2.9,0.2,4.1,0.7c-0.2,0.4,0,0.2-0.2,0.5c-1.5,1-3,1.1-4.1,2.6c-2.8,4.1-1.9,15.1-1.9,22.1c0,15.5,0,29,0,44.6
	c0.1,0,0.2,0,0.2,0c0,0.1,0,0.2,0,0.2c0.3,0,6.3,1.4,6.5,1.4c0.2,0.3,0.1,0.2,0.2,0.7c-1.9,1.3-3,3.6-4.6,5.3
	c-2.1,2.3-4.4,4.4-6.5,6.7c-0.4-0.2-0.2,0-0.5-0.2c-3-0.9-6.2-4.2-9.1-5.8c-1.3-0.7-3.3-1.2-3.8-2.6c0.9-0.9,3.5-4.6,3.8-5.8
	c-0.1-8.2-0.2-16.5-0.2-24.7c0-4.2,0.8-9.2,0-13.2c-0.1-0.7,0.2-1.6,0.2-1.9c0-4.2,0-8.5,0-12.7c-0.8-2.9-4.4-4.8-4.8-7.4
	c1.5-1.1,2.1-4.4,4.3-4.6c2,2.1,4.3,2.8,7,3.1c1.2-1.8,3.6-5.7,5.3-7C232.6,1.3,234.4,1,235.4,0z M164.4,20.2
	c-0.2,2.5-3.8,7.3-5,9.4c-0.8,1.2-0.9,2.6-2.4,3.1c-1.7,1.2-7.1,1-9.1,0.7c-0.1,0.2-0.2,0.5-0.2,0.7c-0.5,0.8-0.5,4.3-0.2,5.5
	c1,4.9-0.8,13.3,0.2,18.2c0.5,2.2-1.2,5.5,0,7.4c0.4,1.4,4.2,4.1,5.8,3.4c2-0.6,2-2.6,4.3-2.9c1,0.7,2,0.6,2.2,2.2
	c-1,1.1-1.3,2.7-2.2,4.1c-1.4,2.3-3.1,4.9-4.6,7.2c-1,1.6-1,3.8-3.4,4.1c-1.2-1-3-1-4.6-1.7c-2.7-1.1-5.4-2.7-7.9-3.8
	c-1-0.5-3.1-0.7-3.6-1.7c0-4.7,0-9.4,0-14.2c0.4-1,0-4.9,0-6.7c0-5.6,0.7-12.3,0-16.1c-0.3-1.6,0.4-4.4,0-5.3
	c-0.4-0.6-0.7-0.5-1.7-0.5c-0.4-0.2-2.9,0-4.1,0c-0.1-0.2-0.2-0.5-0.2-0.7c1.5-1.6,2.5-3.7,3.8-5.5c1.6-2.2,3.7-4.1,5.3-6.2
	c2.2-3,4.3-6,7-8.6c2-2,4.7-5.7,8.9-4.1c0,0.2,0,0.3,0,0.5c-5.8,3.1-5.2,4.9-5,13.4c0.7,0.4,1.4,0.5,2.6,0.5
	c0.6,0.4,1.5,0.1,2.4,0.2C158.4,24,160.5,20.6,164.4,20.2z M41,57.6c0,5,0.2,11.9,0.2,18c0,2.6,0,5.3,0,7.9c0.7,2.1,3.6,3,4.1,5.3
	c-6.3,2.8-10.9,6.2-15.1,11c-1.6-0.5-7.2-6.2-8.6-7.7c-0.8-0.8-1.9-1.2-2.2-2.6c1-1,5.9-6.8,6.2-7.9c0-4.6,0-9.3,0-13.9
	c0-10.2,0-19.7,0-30.2c-0.4-0.1-0.4-0.2-1-0.2c-0.6,0.7-7.6,4.2-8.9,4.3c0-0.2,0-0.3,0-0.5c-0.6-0.9-0.5-3.1-0.5-4.6
	c3.5-1.9,7.1-3,9.8-5.5c0.4-7.7-10.2-10.9-18-7.7c-2.4,1-5.1,3.9-7,4.3c-0.1-0.2-0.2-0.5-0.2-0.7c2.2-1.5,3.3-4.6,5.5-6.2
	c5.1-3.7,10.5-5.6,17.5-7.4c3.1-0.8,8.4-1.2,11.5,0c2.3,0.9,4.1,3.1,5.3,5c0.7,1.2,0.3,2.5,1.9,2.9c0.7-0.9,1.9-1,2.9-1.7
	c2.4-1.7,5-3.7,7.4-5.3c1.3-0.8,2.6-1.2,3.6-2.2c6.6,3.1,11.3,7.2,13.2,14.9c0,1.4,0,2.9,0,4.3c0,4.3-0.2,8.5-0.2,12.5
	c-3.2,2-6.9,4.2-10.3,6c-1.3,0.7-2.3,0.3-2.6,1.9c1.4,0.4,2.1,1.4,3.1,2.2c3.2,2.2,6.3,4.5,9.4,6.7c1.1,0.8,2.8,1.2,3.4,2.4
	c0.8,1.2,0.2,3.7,0.2,5.8c0,4.3-0.4,10.3,0.5,13.9c1.9,7.6,5,15,11.3,18.2c1.6,0.8,3.1,0.7,5,1.2c1.6,0.4,5.1,1,7.4,0.5
	c1.9-0.4,3.8-1.2,5.8-1.4c0,0.1,0,0.2,0,0.2c0.1,0,0.2,0,0.2,0c-0.1,0.2-0.2,0.5-0.2,0.7c-3.1,1.4-6.8,2.5-10.3,3.4
	c-3,0.7-8.9,1.2-12,0.5c-4.7-1-8.2-0.8-11.8-2.6C57.8,98,54.3,85.6,56.2,69.6c-3.8-2.5-7-5.9-10.8-8.6C43.9,59.9,43.1,57.9,41,57.6z
	 M172.6,16.1c-0.2,0.6-0.4,0.7-0.7,1.2c-0.6-0.1-0.6-0.1-1-0.2c0.1-0.9,0.1-0.7,0.5-1.2C172,15.9,172.2,16,172.6,16.1z M171.6,18.7
	c0.1,0,0.2,0,0.2,0c0-0.1,0-0.2,0-0.2c0.5,0.1,0.5,0.1,0.7,0.2c0.2,0.3,0.2,0.2,0.2,0.7c-0.4,0-0.8,0-1.2,0
	C171.6,19.2,171.6,19,171.6,18.7z M371.5,22.3c0.2,7.7-6.3,16.6-9.6,21.4c-1.4,2.1-4.1,4.1-4.6,7c3,1.6,6,3.5,8.9,5.3
	c1.2,0.7,2.3,0.7,2.6,2.4c-2.8,2.8-1.7,14.9-1.7,20.6c0,2.1,0.2,3.8-0.2,5c-4.9,2.2-9.9,4.6-14.4,7.4c-2.1,1.3-3.9,4.2-6.7,4.6
	c-2.4-3.2-8.8-6.2-14.9-4.8c-2.1,0.5-3.7,1.4-6.2,1.4c-0.2-0.4-0.2-0.9-0.2-1.7c0.8-0.9,0.9-2.2,1.4-3.4c1.2-2.4,3-5.7,4.6-8.2
	c1.6-2.6,5.4-6.3,6-9.6c-1.9-1-10-4.7-10.1-6.7c2-0.8,1.7-3.5,1.7-6.2c0-5.4,0-10.9,0-16.3c6.5-3.6,13.2-6.7,18-12
	c1.6,0.8,3,2.2,4.6,2.9c3.6,1.6,11,3.2,14.6,0.5c1.4-1.1,3.2-4,3.8-5.8C369.8,24.5,369.3,22.5,371.5,22.3z M54.7,30.5
	c0.1,0.5,0.1,0.5,0.2,0.7c0,5,0,9.9,0,14.9c-0.4,0.9-2.5,1.4-3.4,1.9c-1.6,1-3.6,2.2-5.3,3.1c-1.2,0.6-2.6,0.9-3.6,1.7
	c-0.7,0-1-0.1-1.4-0.2c0-6.6,0-13.3,0-19.9c0-2.5,0-5,0-7.4c0.2-0.5,1.3-0.6,1.7-1C46.9,24.6,51.8,28.6,54.7,30.5z M325.7,25.4
	c1,0.4,0.8,1.7,0.7,3.1c-0.6,0.9-0.3,2.2-0.7,3.4c-0.6,1.8-1.7,3.8-2.6,5.5c-1.7,3-4,6-6,8.9c-1.2,1.6-3.1,3.1-3.4,5.5
	c2.6,1.1,11.2,4.3,11.3,7.2c-0.7,1-1.4,3.1-1.2,4.8c0.7,5.1,0.2,13.2,0.2,19.4c-5,3.1-10.8,5.5-15.8,8.6c-1.8,1.1-3.4,3.8-5.8,4.1
	c-1.6-2.4-8.8-6-13.9-4.8c-2.3,0.6-4.6,1.3-7,1.9c-0.2-0.4-0.3-0.4-0.5-1c1.4-1.8,1.8-4.5,2.9-6.5c2-3.7,4.6-7.4,7-10.8
	c1-1.5,1.6-3.1,2.9-4.3c0-0.2,0-0.3,0-0.5c-4-1.5-7.4-3.8-10.8-6c0.1-0.2,0.2-0.5,0.2-0.7c2.1-0.5,1.8-2.7,1.7-5.3
	c0.6-0.9,0.2-3.4,0.2-4.8c0-4,0-8,0-12c4.3-2.1,8.7-4.5,12.5-7.2c1.7-1.2,3.2-3.8,5.5-4.3c2.5,3.8,13.2,6.2,18,3.1
	C323.6,31.3,324.4,28.3,325.7,25.4z M88.1,28.6c2,1.3,8.3,9.3,8.4,12.2c-4.8,3.1-3.1,17-3.1,25c0,2.5-0.7,7.3,0.5,8.9
	c0.7,2.2,3.5,4.2,6.2,4.3c2.5-2,5.5-3.5,7-6.5c0.8-1.7,0-4.7,0-7c0.1-4.8,0.2-9.6,0.2-14.4c0-2,0.4-5-0.5-6.2
	c-1.4-1.3-4.1-1.7-4.3-4.1c1.4-1.1,1.9-3,2.9-4.6c0.7-1.2,1.9-2.2,2.6-3.4c0.8-1.2,0.9-2.7,2.6-2.9c4,3.6,10.4,4.6,15.1,7.4
	c-0.2,0.4,0,0.2-0.2,0.5c-0.9,2.5-3.8,3.4-4.8,5.3c-0.9,1.6-0.2,5.6-0.2,7.7c0,6.2,0,12.5,0,18.7c0,2.4-0.6,6.6,0.5,8.2
	c1.1,2.9,6.4,3,7,5c-1.8,1.1-6.2,5.3-7.4,7c-1.4,1.9-2.5,4.6-5.3,5c-1.8-2.5-5.3-3.8-7-6.5c-1.3-2.1-0.2-6.5-1.4-8.4
	c-3.5,3.8-7.6,7.2-11.8,10.3c-1.6,1.2-2.5,3.2-5,3.4c-0.9-1.4-2.7-2.4-3.8-3.6c-2.2-2.2-4.2-4.8-6.5-7c1.1-9,0.5-16.3,0.5-25.4
	c0-3.6,0.9-10.3-0.2-12.7c-1.8-1.8-3.5-3.7-5.3-5.5c1.6-2.2,4.5-3.5,6.7-5C83.6,32.7,86.2,30.6,88.1,28.6z M281.5,71.8
	c-0.4,6.9-8.3,12.6-12.5,16.3c-1.5,1.4-3.8,4.9-6.2,5c-1-1.2-2.4-1.4-3.8-2.2c-3.2-1.7-6.8-3.8-10.1-5.3c-1.6-0.7-3.7-0.7-4.3-2.4
	c3.1-3.1,0.9-5.8,1.9-10.3c0.6-2.9,0.2-7.2,0.2-10.6c0-6.7,0-13.4,0-20.2c3.5-1.6,6.9-3.8,10.1-5.8c1.7-1.1,3.6-1.6,5.3-2.6
	c2-1.2,4.4-3.6,7.2-3.8c1,1.7,2.7,3,3.8,4.6c1.6,2.2,2.9,4.5,4.6,6.7c1.2,1.7,3.3,3.2,3.6,5.8c-7.1,5.8-14.2,11.7-21.4,17.5
	c0,1.7,0,3.4,0,5c0.7,1.1,0.1,4,0.2,5.3c2.2,0.6,8.9,4.9,11.8,4.1c2.5-0.8,5-2.9,6.7-4.6C279.6,73.5,279.9,72,281.5,71.8z
	 M192.7,36.2c-0.2,0.2-0.1,0.1-0.5,0.2c0-0.1,0-0.2,0-0.2c-0.2-0.2-0.1-0.1-0.2-0.5c0.2-0.2,0.3-0.4,0.5-0.7c0.3,0,0.6,0,1,0
	C193.4,36,193.5,35.9,192.7,36.2z M61.7,35.5c0,0.1,0,0.2,0,0.2c-0.7-0.2-0.4,0.1-0.5-0.5C61.4,35.4,61.5,35.4,61.7,35.5z
	 M350.9,37.2c0,0.3,0,0.6,0,1c-0.7,0-0.3,0.2-0.7,0c-0.2,0-0.3,0-0.5,0c0.1-0.9,0.1-0.7,0.5-1.2C350.4,37,350.6,37.1,350.9,37.2z
	 M354,38.2c0.2,0.4,0,0.2,0.2,0.5c-0.1,0.9-0.2,0.9-0.5,1.4c-0.6-0.1-0.6-0.1-1-0.2c0.1-0.8,0.3-1.3,0.5-1.9
	C353.5,38,353.8,38.1,354,38.2z M89.8,39.4c0.2-0.9,0-0.7,0.7-1c0.2-0.2,0.1-0.1,0.5-0.2c0.3,0.3,0.6,0.5,1,0.7c0,0.3,0,0.6,0,1
	C90.8,39.8,90.4,39.7,89.8,39.4z M64.6,39.1c-0.4-0.2-0.2,0-0.5-0.2C64.5,39,64.3,38.9,64.6,39.1z M113.5,39.4
	c-0.2,0.4,0,0.2-0.2,0.5c-0.2,0.2-0.1,0.1-0.5,0.2c-0.3-0.3-0.6-0.5-1-0.7c0-0.2,0-0.3,0-0.5C112.7,39,112.8,39.2,113.5,39.4z
	 M57.8,39.4c0,0.2,0,0.3,0,0.5c-0.2,0-0.5,0-0.7,0c0-0.2,0-0.3,0-0.5C57.4,39.4,57.6,39.4,57.8,39.4z M64.6,40.6c0,0.2,0,0.3,0,0.5
	c-0.2,0-0.5,0-0.7,0c0.1-0.2,0.2-0.5,0.2-0.7C64.2,40.4,64.4,40.5,64.6,40.6z M261.6,43.4c1.4,2,4.5,7.2,6.2,8.6
	c-0.9,2.4-6,4.5-7.7,6.7c-0.2,0-0.3,0-0.5,0c-0.1-0.6,0.3-1.5,0.2-2.2c-0.4-3.1-0.8-13.6-0.2-16.1C260.7,41.3,260.9,42.4,261.6,43.4
	z M360.2,42c-2.4,1.7-3.8,5.5-5.5,7.9c-1.8,2.4-3.9,4.7-5.8,7.2c-0.6,0.9-1.8,1.2-2.4,2.2c-2.2-0.3-3.7-1.7-5.3-2.6
	c-0.1-3.4-0.2-7.1-0.2-10.8c0-1.3-0.3-3.5,0.2-4.3c0.6-0.2,5,1.8,6.5,2.2c5.5,1.3,8.9-1.8,12.5-2.4C360.2,41.5,360.2,41.8,360.2,42z
	 M311.5,42.2c0.1-0.2,0.2-0.5,0.2-0.7C312.2,42.1,312.2,41.9,311.5,42.2z M300,43.2c3.4,1.8,7.7,1.7,11.3,0.5
	c1.6-0.5,3.4-0.5,4.3-1.7c0.3,0,0.6,0,1,0c-2.1,4.9-6.2,8.8-9.1,13c-1.2,1.7-2.4,4.3-4.6,5c-1.4-1.4-4.1-1.8-4.8-3.8
	c-0.5-0.7-0.2-2.5-0.2-3.6c0-3.2-0.7-7.9,0.2-10.6C299,42.3,299.3,42.8,300,43.2z M86.2,43.2c0-0.2,0-0.3,0-0.5c0.3,0,0.6,0,1,0
	c0,0.4,0,0.8,0,1.2c-0.1,0-0.2,0-0.2,0c0,0.1,0,0.2,0,0.2c-0.3,0-0.6,0-1,0C86,43.6,86,43.5,86.2,43.2z M178.3,46.6
	c-0.1,0.5-0.1,0.5-0.2,0.7c0,0.1,0,0.2,0,0.2c-0.6-0.2-0.5-0.2-1-0.5c-0.1-0.4-0.2-0.8-0.2-1.2C177.5,46.1,177.8,46.3,178.3,46.6z
	 M253.4,52.3c0.1,0,0.2,0,0.2,0c0,0.1,0,0.2,0,0.2c-0.1,0-0.2,0-0.2,0c0,0.1,0,0.2,0,0.2c-1-0.3-1.4-0.8-1.4-1.4
	C252.6,51.6,253.1,51.7,253.4,52.3z M334.6,53.5c-1.1-0.3-1.4-0.7-2.2-1.2c0-0.2,0-0.3,0-0.5c0.5-0.2,0.7-0.4,1.4-0.5
	C334,52.4,334.4,52.5,334.6,53.5z M36.5,54c-0.2,0.2-0.1,0.1-0.5,0.2c0-0.1,0-0.2,0-0.2c-0.1,0-0.2,0-0.2,0c0.1-0.6,0.1-0.6,0.2-1
	C36.6,53.5,36.5,53.5,36.5,54z M39.8,53.3c-0.1,0-0.2,0-0.2,0c0,0.1,0,0.2,0,0.2c-0.1,0-0.2,0-0.2,0c0-0.2,0-0.3,0-0.5
	C39.8,53.2,39.6,53.1,39.8,53.3z M287.5,53c-0.1,0.5-0.1,0.5-0.2,0.7c-0.2,0.2-0.1,0.1-0.5,0.2c-0.1-0.4-0.2-0.4-0.2-1
	C286.9,53,287.2,53,287.5,53z M334.8,54.7c0-0.1,0-0.2,0-0.2c-0.2-0.5-0.1-0.2,0-0.7C335.5,54.3,335.7,54.3,334.8,54.7z M32.4,55.4
	c0,0.2,0,0.3,0,0.5c-0.1,0-0.2,0-0.2,0c0-0.2,0-0.3,0-0.5C32.2,55.4,32.3,55.4,32.4,55.4z M250.1,56.6c-0.5-0.2-0.2,0.3-0.7-0.2
	C249.6,56.5,250.2,56.2,250.1,56.6z M136.8,57.6c0.1-0.2,0-0.1,0.2,0c0.2,0,0.3,0,0.5,0c0,0.2,0,0.5,0,0.7c-0.3,0-0.6,0-1,0
	C136.7,57.8,136.6,57.9,136.8,57.6z M315.8,57.6c0,0.8,0,1.6,0,2.4c-0.2,0-0.3,0-0.5,0c-0.3-0.8-0.6-1.4-0.7-2.4
	C315,57.6,315.4,57.6,315.8,57.6z M115.2,57.8c0,0.2,0,0.3,0,0.5c-0.1,0-0.2,0-0.2,0c0-0.2,0-0.3,0-0.5
	C115,57.8,115.1,57.8,115.2,57.8z M111.1,60c-0.1,0-0.2,0-0.2,0c0-0.2,0-0.3,0-0.5C111.1,59.8,111,59.6,111.1,60z M177.1,60.5
	c0,0.1,0,0.2,0,0.2c0.1,0,0.2,0,0.2,0c-0.1,0.6-0.1,0.6-0.2,1c-0.4,0.2-0.2,0-0.5,0.2c-0.9-0.2-0.8-0.4-1.4-0.7
	c0.1-0.6,0.1-0.6,0.2-1C176,60.3,176.6,60.4,177.1,60.5z M309.6,61.2c0,0-0.3,0.1-0.2-0.2c-0.1,0-0.2,0-0.2,0
	c0.1-0.2,0.2-0.3,0.2-0.5C309.4,60.5,309.9,60.9,309.6,61.2z M139.4,61c-0.3,0.8-0.5,0.9-1.2,1.2c-0.1-0.2-0.2-0.5-0.2-0.7
	c0.3-0.2,0.5-0.3,0.7-0.5C139,61,139.2,61,139.4,61z M109.7,61.2c0,0.2,0,0.5,0,0.7c-0.6-0.4-0.3,0.1-0.5-0.7
	C109.4,61.2,109.5,61.2,109.7,61.2z M256.8,61.4c-0.1,0-0.2,0-0.2,0c-0.2,0.3,0,0-0.2,0.2c0-0.2,0-0.3,0-0.5
	C256.7,61.4,256.6,61.3,256.8,61.4z M32.2,63.8c-0.2,0.3-0.5,0.4-0.7,0.7c-0.2,0-0.3,0-0.5,0c0.1-0.8,0.3-0.7,0.5-1.4
	c0.3,0,0.6,0,1,0C32.3,63.6,32.3,63.6,32.2,63.8z M329.5,85.9c2.1-1.7,4.8-7.3,6.5-9.8c3.1-4.7,7.1-8.6,10.6-13
	c2.7,0.5,5.7,2.7,7.9,4.1c0,3.8,0,7.7,0,11.5c0,1.3,0.3,3.7-0.2,4.6c0,0.2,0,0.3,0,0.5c-2.8-0.5-4.9-2.8-7.7-3.6
	c-7.2-2.2-14.1,2.8-16.3,6.7c-0.2,0-0.5,0-0.7,0C329.5,86.6,329.5,86.2,329.5,85.9z M69.6,63.6c-0.2,0.7-0.3,0.5-0.7,1
	c-0.2,0-0.3,0-0.5,0c0.1-0.8,0.2-0.7,0.5-1.2C69.1,63.4,69.4,63.5,69.6,63.6z M303.6,80.6c-6-2.1-14.9,2.4-16.1,6
	c-0.2,0.1-0.5,0.2-0.7,0.2c0-0.1,0-0.2,0-0.2c-0.1,0-0.2,0-0.2,0c0.4-2.3,2.5-3.8,3.6-5.5c1.2-2,2-3.9,3.4-5.8
	c1.6-2.2,3.7-4.3,5.3-6.5c1.3-1.7,2.7-4.3,4.8-5c0.2-0.3,1.6,0.6,2.2,1c2,1.1,4.2,2.2,6,3.4c-0.4,5.1-0.3,11.1-0.2,16.6
	C308.9,84.4,306.3,81.6,303.6,80.6z M89,65.8c0.1-0.2,0.2-0.5,0.2-0.7c0.6,0.4,0.3-0.1,0.5,0.7C89.5,65.8,89.3,65.8,89,65.8z
	 M203.8,66.2c0-0.1,0-0.2,0-0.2c0.1,0,0.2,0,0.2,0c0.1,0.4,0.2,0.4,0.2,1c-0.2,0-0.5,0-0.7,0C203.6,66.5,203.6,66.5,203.8,66.2z
	 M318,69.6c0.2,0,0.5,0,0.7,0c0,0.2,0,0.5,0,0.7c-0.7,0.4-0.9,0.5-1.2,1.2c-0.3,0-0.6,0-1,0C316.8,70.3,317.5,70.5,318,69.6z
	 M365,72c0,0.2,0,0.5,0,0.7c-0.2,0-0.5,0-0.7,0c0-0.2,0-0.5,0-0.7C364.6,72,364.8,72,365,72z M316.3,73.4c0,0.1,0,0.2,0,0.2
	c-0.1,0-0.2,0-0.2,0c0.1-0.2,0.2-0.5,0.2-0.7C316.5,73.3,316.6,73.1,316.3,73.4z M81.8,73.9c0,0.1,0,0.2,0,0.2c0.1,0,0.2,0,0.2,0
	c0,0.1,0,0.2,0,0.2c-0.1,0-0.2,0-0.2,0c-0.2,0.2-0.1,0.1-0.5,0.2c-0.1-0.2-0.2-0.5-0.2-0.7C81.4,73.9,81.6,73.9,81.8,73.9z
	 M315.8,74.6c-0.1,0.9-0.4,1.1-0.7,1.7c-1.6-0.4-0.4-0.9,0.2-1.7C315.5,74.6,315.7,74.6,315.8,74.6z M84.7,78.2c-0.1,0-0.2,0-0.2,0
	c0,0.1,0,0.2,0,0.2c-0.6-0.1-0.6-0.1-1-0.2c-0.2-0.4,0-0.2-0.2-0.5c0.2-1,0.4-0.9,1-1.4C85.1,77,84.8,77,84.7,78.2z M91.2,76.6
	c-0.2,0.6-0.2,0.5-0.5,1c-0.2,0-0.3,0-0.5,0c0.1-0.6,0.1-0.6,0.2-1C90.7,76.6,91,76.6,91.2,76.6z M171.6,78
	c-0.1,0.2-0.2,0.3-0.2,0.5c-1.2-0.1-1-0.1-0.7-1C171.2,77.7,171.2,77.8,171.6,78z M87.4,78.2c0,0.1,0,0.2,0,0.2c0.1,0,0.2,0,0.2,0
	c0,0.2,0,0.3,0,0.5c-0.4,0-0.8,0-1.2,0c0.1-0.2,0.2-0.5,0.2-0.7C86.9,78.2,87.1,78.2,87.4,78.2z M227.8,79.7c0.1,0,0.2,0,0.2,0
	c0.2-0.2,0.1-0.1,0.5-0.2c0,0.1,0,0.2,0,0.2c0.1,0,0.2,0,0.2,0c-0.1,0.5-0.1,0.5-0.2,0.7c-0.3,0.2-0.2,0.2-0.7,0.2
	C227.8,80.3,227.8,80,227.8,79.7z M316.6,81.6c0-0.1,0-0.2,0-0.2c-0.1,0-0.2,0-0.2,0c0.1-0.5,0.1-0.5,0.2-0.7c0-0.1,0-0.2,0-0.2
	c0.1,0,0.2,0,0.2,0c0,0.1,0,0.2,0,0.2c0.2,0,0.3,0,0.5,0c0,0.3,0,0.6,0,1C317,81.6,316.8,81.6,316.6,81.6z M112.8,81.8
	c-0.1,0-0.2,0-0.2,0c0-0.2,0-0.3,0-0.5C112.8,81.6,112.6,81.4,112.8,81.8z M38.2,81.8c0,0.1,0,0.2,0,0.2c0.1,0,0.2,0,0.2,0
	c0,0.2,0,0.3,0,0.5c-0.2,0.2-0.1,0.1-0.2,0.5c-0.4,0.2-0.2,0-0.5,0.2c-0.6,0-0.9,0-1.2-0.2c-0.2-0.2-0.1-0.1-0.2-0.5
	c0.4-0.2,0.9-0.4,1.2-0.7C37.7,81.8,37.9,81.8,38.2,81.8z M313.4,83.5c0,0.2,0,0.3,0,0.5c-0.2,0-0.3,0-0.5,0c0-0.2,0-0.3,0-0.5
	C313.1,83.5,313.3,83.5,313.4,83.5z M312.5,85.7c-0.1,0-0.2,0-0.2,0c0-0.2,0-0.3,0-0.5C312.4,85.5,312.3,85.3,312.5,85.7z
	 M34.6,85.9c0.1,0,0.2,0,0.2,0c-0.2,0.3-0.2,0.3-0.5,0.5c0,0.1,0,0.2,0,0.2c-0.1,0-0.2,0-0.2,0c-0.1-0.7-0.1-0.4,0-1
	C34.5,85.8,34.3,85.7,34.6,85.9z M119.5,86.2c0,0.1-0.5,1-0.5,0.7c-0.5-0.3,0-0.4,0-0.7C119.2,86.2,119.4,86.2,119.5,86.2z
	 M31.7,87.6c-0.1,0-0.2,0-0.2,0c0,0.1,0,0.2,0,0.2c-0.5-0.1-0.5-0.1-0.7-0.2c-0.2-0.1-0.1,0,0-0.2c0-0.2,0-0.3,0-0.5
	c0.3,0,0.6,0,1,0C31.7,87.1,31.7,87.4,31.7,87.6z M343.2,89.3c0,0.2,0,0.3,0,0.5c-0.2,0-0.5,0-0.7,0c0-0.2,0-0.3,0-0.5
	C342.7,89.3,343,89.3,343.2,89.3z M116.6,102.5c7.6-0.2,8.8,5.2,10.8,10.3c0,0.1,0,4.5,0,4.6c-0.1,0.4-0.6,0.4-0.7,1
	c0.1,0.2,0.2,0.3,0.2,0.5c-0.4,0.3-0.9,0.1-1.2,0.5c0,0.3,0,0.6,0,1c-0.6,1.2-2.7,3-4.1,3.4c-0.1-0.6,0.2-0.3-0.5-0.5
	c-1.6,1.5-4.5,1.7-7.7,1.7c0,0.1,0,0.2,0,0.2c0.2,0,0.3,0,0.5,0c1.8,1.6,6.5,4.8,8.4,5.3c0.4,0.1,2.4-0.8,2.9-1
	c0.2,0.6,0.3,0.4,0.5,1c-1.1,1.6-0.7,4.5-3.6,4.8c-1.3-0.8-3.9-0.2-5.3-0.7c-3.2-1.2-6.3-3.9-7.9-6.7c-0.1,0-0.2,0-0.2,0
	c0,0.1,0,0.2,0,0.2c-0.2,0.4,0,0.9-0.2,1.4c0,0.1-0.7,0.5-0.7,0.5c0.1,0.6,0.2,1.1,0.2,1.7c-0.3,0.2-0.6,0.3-1,0.5
	c-0.5,0.8-0.7,2.2-1,3.1c-0.7,0.1-0.8,0.1-1.2,0.5c-1-0.5-0.9-0.5-2.2-0.7c0-0.1,0-0.2,0-0.2c0.8-1.3,2.2-7.2,2.4-9.1
	c-0.1,0-0.2,0-0.2,0c-0.6,2.1-1.3,4.2-1.9,6.2c-0.1-1.6-0.3-0.5-0.5-1.9c0.8-0.9,1.3-3.5,1.4-4.8c-0.1,0-0.2,0-0.2,0
	c0,0.2,0,0.3,0,0.5c-1.5,1.8-1.4,6.1-2.9,8.2c0-0.1,0-0.2,0-0.2c-1.4-2.1,0.6-6.6,1.2-8.2c1.6-4.1,2.9-7.4,4.8-11
	c0.9-1.8,2.5-3.7,2.9-6c-0.1,0-0.2,0-0.2,0c-0.6,0.7-2.3,1.5-3.1,1.9c0-0.2,0-0.3,0-0.5c0.5-0.3,0.9-0.7,1.2-1.2c-0.1,0-0.2,0-0.2,0
	c0,0.1,0,0.2,0,0.2c-0.2,0.5-0.2-0.5-0.2-0.5c0.8-0.4,1.7-1,2.2-1.7c-0.1,0-0.2,0-0.2,0c-1.3,1.3-2.5,2.1-3.4,3.8
	c-0.1,0-0.2,0-0.2,0c0-0.1,0-0.2,0-0.2c-0.2-0.2-0.1-0.1-0.2-0.5c0.8-0.7,1-2,2.2-2.9c1.3-0.9,2.6-1.7,3.8-2.6
	C112.6,103.1,115.1,103.5,116.6,102.5z M194.6,108.2c-2.6,0-6,0.3-7.2,0.5c-0.8,0-1.6,0-2.4,0c-0.4,0.2-3.3,6.1-3.6,7
	c2.2-0.1,3.9,0.1,5.3,0.7c0,0.7,0,2.2,0.2,2.6c-1.6,1.5-6.6,2.1-9.1,2.4c-0.7,2.9-2.6,4.5-2.6,8.2c0.8-0.2,1.6-0.3,2.4-0.5
	c0,0.1,0,0.2,0,0.2c-0.3,0.2-0.3,0.2-0.5,0.5c0.2,0,0.3,0,0.5,0c0-0.1,0-0.2,0-0.2c0.4-0.4,0.2-0.4,0.7-0.7c0.3,0.2,0.2,0.1,0.7,0.2
	c0-0.2,0-0.5,0-0.7c0.6,0,1.3,0,1.9,0c0-1.5,5.4-2,7.2-1.7c0.4,0.8,1.1,0.7,1.2,2.4c-2.7,2.8-5.6,5.2-9.8,6.5
	c-4.1,1.2-10.2-2.6-11.3-4.6c0.5-0.1,0.5-0.1,0.7-0.2c-1-0.6-0.8-2.9-0.5-4.6c0.4-2.2,1.5-4.5,2.2-6.7c-0.1,0-0.2,0-0.2,0
	c0-0.1,0-0.2,0-0.2c-0.3,0.3-0.3,0.4-0.5,1c-0.1,0-0.2,0-0.2,0c0-0.2,0-0.5,0-0.7c0.3-0.3,0.5-0.7,0.7-1.2c0.6,0.2,0.5,0.1,1.2,0
	c-0.1-1.6,3.6-5.4,4.6-7.2c-1,0-2.1,0-3.1,0c-0.5,0.2-0.9-0.1-1.7-0.2c-0.1-0.6-0.2-1.1-0.2-1.7c-0.4-0.1-0.8-0.2-1.2-0.2
	c0-0.4,0-0.8,0-1.2c0.5-0.3,1.1-0.7,1.4-1.2c-0.1,0-0.2,0-0.2,0c-0.2,0.2-0.4,0.3-0.7,0.5c0-0.2,0-0.3,0-0.5c1-0.3,1.8-1.1,2.6-1.4
	c2.6-1.1,4.5-1.5,7-1.7c0,0.1,0,0.2,0,0.2c-0.2,0-0.3,0-0.5,0c-0.7,0.2-1.4,0.5-2.2,0.7c0,0.1,0,0.2,0,0.2c0.2,0,0.5,0,0.7,0
	c0.5-0.4,1.1-0.4,1.9-0.5c0,0.1,0,0.2,0,0.2c0.1,0,0.2,0,0.2,0c0,0.2,0,0.3,0,0.5c-0.6,0.2-4,1.2-4.6,1.7c0.3,0,0.6,0,1,0
	c0.9-0.6,2.4-0.4,3.4-1c0.9-0.5,0.7-1.7,1.9-2.2c0.8,0.7,1.8,0.3,3.1,0c2.1-0.4,5.8-1,8.9-0.5c0.3,0.5,0.5,0.6,0.7,1.2
	c-0.3,0.1-0.2,0-0.2,0.2c0.5,0.9,0.8,1.4,1,2.2c0.8-0.6,1.9-1.2,2.6-1.9c-0.1-0.3,2.3-0.8,3.6-1.2c3.9-1.3,12.9-1.3,14.2,2.4
	c0,0-0.9,0-0.5,0.2c0.2,0,0.3,0,0.5,0c0.7,0.6,1.2,0.8,1.7,1.7c0.5-0.1,0.7-0.3,1.2,0c0.3,0.4,0.3,0.7,0.5,1.4c-0.5,0-0.1-0.2-0.5,0
	c1.1,1.5,1.9,5.1,0.7,7.2c0.1,0,0.2,0,0.2,0c0.2-0.2,0.1-0.1,0.5-0.2c0.1-0.9-0.1-0.6,0.5-1c0,0.2,0,0.5,0,0.7
	c-0.5,0.6-0.7,1.7-1.4,2.2c-0.2-0.3,0,0-0.2-0.2c-0.6,3-4.5,3.7-7,4.8c0.1,0.5,0.4,0.2,0,0.5c-0.8,0.9-5,1.9-6.7,1.4
	c-0.8-0.2-2.5-1.4-3.1-1c-0.6,0.7,0,1.3-0.2,1.9c-0.7-0.2-2,3.5-2.2,4.6c-0.1,0.7,0.7,0.6,0.2,1.4c-0.2-0.8,0.1-0.4-0.5-0.7
	c0,0.2,0,0.3,0,0.5c0.3,0.3,0.4,0.7,0.5,1.2c-0.2-0.1-0.3-0.2-0.5-0.2c0,0.1,0,0.2,0,0.2c0.5,0.9-0.7,2.8-1.7,3.1
	c-0.1-0.5-0.1-0.5-0.2-0.7c-0.3,0.6,0.1,0.2-0.5,0.5c-0.2-0.9-0.8-1.4-1.4-1.9c-0.2-2.6,0-4.3,0-6.2c-0.1,0-0.2,0-0.2,0
	c0,0.2,0,0.3,0,0.5c-0.9,1.3-0.4,3.9-1,5.5c-0.2-0.2-0.1-0.1-0.2-0.5c-1.2-1.8,0-4.9,0-6.7c-0.1-3.9,4.2-9.1,4.8-13.4
	C197.1,111.7,195,110.5,194.6,108.2z M283.9,102.5c0.6,1-0.5,2.9-1,3.8c0.1,0,0.2,0,0.2,0c0-0.1,0-0.2,0-0.2
	c0.5-0.7,0.6-2.2,1.4-2.6c0.4,0.2,0.3-0.2,0.7,0c0.5,0.5,0.3,1.3,0.7,1.9c0.1-0.9-0.1-0.6,0.5-1c0,0.6,0,1.1,0,1.7
	c1.3,2.1-2.5,9.5-2.9,10.8c-0.4,1.3-0.9,2.1-1.2,3.4c-0.1,0-0.2,0-0.2,0c-0.1-0.5-0.1-0.5-0.2-0.7c0,0.2,0,0.3,0,0.5
	c-1.4,1.1-1.5,2.8-2.4,4.3c-1.2,2-2.5,4.7-4.1,7.2c-0.6,1-1.6,1.8-1.9,3.1c-0.2,0-0.3,0-0.5,0c0-0.3,0-0.6,0-1
	c1.2-1.2,2.7-4.2,3.1-6c-0.1,0-0.2,0-0.2,0c0,0.1,0,0.2,0,0.2c-1.3,1.5-2.9,6.9-4.8,7.2c-0.3,0.3-0.3,0.1-0.7,0.5
	c0-0.3,0.2-1.7,0.2-1.7c-0.3-0.4-0.9-0.2-0.7-1.2c0.5-3,2.8-6,4.1-8.6c-0.2,0-0.3,0-0.5,0c0,0.1,0,0.2,0,0.2
	c-2.4,2.7-3.1,6.9-4.6,10.6c-0.1,0-0.2,0-0.2,0c-0.2-1.5-0.6-3.2,0-5c0.4-1.2,1.2-2.2,1.4-3.6c-0.1,0-0.2,0-0.2,0c0,0.2,0,0.3,0,0.5
	c-0.9,1-1,3.9-2.2,4.6c0-0.4,0-0.8,0-1.2c0.5-0.8,0.3-1.9,0.7-2.9c0.7-1.6,1.9-3.1,2.4-4.8c-4-3.1-4.1-10.2-4.1-16.3
	c0.5-0.3,0.6-0.5,1-1c1.2,1,2.2,1.4,2.6,3.1c0.1,0,0.2,0,0.2,0c0.1-0.5,0.1-0.5,0.2-0.7c0.1,1.2,0.6,3,1.2,3.8
	c0.2,0.2,0.8,0.2,1,0.5c0.3,0.7-0.4,1.2-0.2,1.7c0.1,0.2,0.8,0.4,1,0.7c0.2,0.5-0.3,0.7-0.2,1c0.1,0.6,1,2.1,1.4,2.6
	c0-0.2,0-0.3,0-0.5c1.9-1.5,2.5-4.6,3.8-6.7c0.3-0.5,1.1-0.9,1.4-1.4c1.2-1.8,1.5-3.9,2.6-5.8C283.4,102.7,283.7,103.1,283.9,102.5z
	 M259.9,103c0.2,0.8-0.1,0.4,0.5,0.7c0.4-0.2,0.6-0.1,1.4,0c0.4,1,1.7,1.5,2.2,2.4c1.6,2.9-0.3,6.2-1,8.9c1.8,0.2,4.1,1.5,4.3,3.4
	c0.1,0,0.2,0,0.2,0c0,0.1,0,0.2,0,0.2c-0.2,0-0.5,0-0.7,0c-0.2-0.3-0.2-0.3-0.5-0.5c0,0.1,0,0.2,0,0.2c0.2,0.2,0.2,0.4,0.5,1
	c-0.2,0-0.3,0-0.5,0c-0.6-0.4-4.6-0.1-5.3,0.2c-1,0.9-1.1,2.5-1.7,3.8c-1.1,2.6-3,5.3-3.8,7.9c-0.7-0.4-0.5-0.2-1.4-0.5
	c-0.2,0.7-0.4,1.1-0.7,1.7c-0.1,0-0.2,0-0.2,0c0-0.2,0-0.3,0-0.5c0.8-0.8,0.8-2.2,1-3.1c-0.1,0-0.2,0-0.2,0c0,0.2,0,0.3,0,0.5
	c-0.6,0.7-1.2,1.9-1.4,2.9c-0.2,0-0.3,0-0.5,0c0-0.2,0-0.5,0-0.7c0.5-0.5,0.8-1.2,1-1.9c-0.1,0-0.2,0-0.2,0c0,0.1,0,0.2,0,0.2
	c-0.7,0.7-1,2.2-1.4,3.1c-0.1,0-0.2,0-0.2,0c0-0.2,0-0.3,0-0.5c0.7-0.9,0.7-2.2,1.2-3.4c1.1-2.6,3.1-5.7,3.6-8.9
	c-1.4,0-5.9,1-6.5,2.2c0.1,0.5,0.2,0.2-0.2,0.7c-0.3,0.2-0.2,0.1-0.7,0.2c0.3,0.8,0.3,0.3,0.2,1.2c-0.1,0-0.2,0-0.2,0
	c-0.2-0.3-0.2-0.3-0.5-0.5c0,0.2,0,0.3,0,0.5c-0.7,0.9-0.4,1.8-1,2.6c-0.2-0.2-0.1-0.1-0.5-0.2c-0.4,1.6-1.7,3.3-2.2,4.8
	c-0.2,0.8,0.4,1.5,0.2,1.9c-0.1,0.2-1,1.2-1,1.2c-0.5,0.5-0.9,0.7-1.9,0.7c-1.3-0.9-3.5-1.4-3.8-3.1c0.2-0.2,0.1-0.1,0.2-0.5
	c-0.1,0-0.2,0-0.2,0c-0.2,0.4,0,0.2-0.2,0.5c-0.2-4-3.6-5-3.4-7.7c1.4-1,1.9-2.3,3.1-3.1c1.4-0.9,3.4-1.1,4.3-2.4
	c3.2-4.5,5.7-9.4,10.1-12.7c1.7-1.3,3.1-3.5,5.8-3.8c0.2,0.3,0,0,0.2,0.2c0,0.1,0,0.2,0,0.2c-0.6,0-0.9,0-1.2,0.2
	c0,0.4,0.2,0.2-0.2,0.5c-0.6,0.5-1.2,0.5-1.7,1.2c0.1,0,0.2,0,0.2,0C255.7,104.1,258.4,103.2,259.9,103z M259.9,103.9
	c-1.4,1.2-3.2,1.8-4.8,2.9c-2.1,1.5-8.5,9-9.4,11.5c-0.2,0-0.3,0-0.5,0c2-3.9,7.8-11.3,10.8-13.4c0.5-0.3,2.3-0.7,3.1-1.4
	C259.7,103.7,259.5,103.7,259.9,103.9z M159.6,103.9c0.2,0,0.3,0,0.5,0c-0.2,0.6-0.7,1.4-1,2.4c-0.1,0-0.2,0-0.2,0
	c0-0.2,0-0.5,0-0.7c0.3-0.5,0.1-0.4,0-1C159.4,104.4,159.3,104.4,159.6,103.9z M229.7,103.9c0.5,1-0.4,1.6-0.7,2.6
	c-0.1,0-0.2,0-0.2,0c0-0.2,0-0.5,0-0.7c0.5-0.6,0.4-0.9,0.5-1.7C229.6,104,229.4,104.1,229.7,103.9z M116.9,104.4
	c-1,0.7-3.3,0.5-4.1,0.7c0-0.1,0-0.2,0-0.2c-0.1,0-0.2,0-0.2,0c0-0.1,0-0.2,0-0.2c0.5-0.1,1.7-0.2,2.2-0.5
	C115.4,104.2,116.2,104.3,116.9,104.4z M184.6,104.2c0,0.1,0,0.2,0,0.2c-0.4,0.2-0.2,0-0.5,0.2c-0.3,0-0.6,0-1,0c0-0.1,0-0.2,0-0.2
	c0.4-0.2,0.2,0,0.5-0.2C183.9,104.2,184.2,104.2,184.6,104.2z M186,104.2c-0.4,0.2-0.5,0.3-1,0C185.4,104.2,185.7,104.2,186,104.2z
	 M138.5,104.4c1.1,0.5,1.7,0.7,1.9,1.4c-0.2,0.3-0.1,0.2-0.2,0.7c0.1,0,0.2,0,0.2,0c0.3-0.6,0.7-0.7,1.2-0.5c0.2,0.3,0.2,0.4,0.2,1
	c0.2,0.5,0,0.6-0.2,1.2c0.2,0,0.3,0,0.5,0c0.3-0.6-0.1-0.2,0.5-0.5c1,2.4,3.2,3.9,4.8,5.8c0.4,0.5,1.2,0.8,1.4,1.4
	c1.9,5-3.2,10.3-5.5,13.4c-0.9,1.2-1.3,2.4-2.9,2.9c0.1-0.2,0.2-0.3,0.2-0.5c-0.1,0-0.2,0-0.2,0c-2.8,4.2-14.4,4.3-12.5-4.1
	c0.4-1.6,0.2-3.6,0.7-5.3c1.6-4.9,4.1-9.6,7-13.4c0.5-0.6,1.2-1,1.7-1.7c-0.1,0-0.2,0-0.2,0c-0.3,0.4-0.2,0.3-0.7,0.5
	c0-0.1,0-0.2,0-0.2c0.2-0.2,0.1-0.1,0.2-0.5C137.2,105.7,138,105,138.5,104.4z M176.4,104.9c0-0.1,0-0.2,0-0.2
	c0.4-0.2,0.2,0,0.5-0.2C177.5,104.6,176.7,104.8,176.4,104.9z M160.6,104.9c0.6,0.2,0.4,0.1,0.7,0.5c0.1,0,0.2,0,0.2,0
	c0.2-0.2,0-0.5,0.2-0.2c0.9,0.5,1.3,1.1,1.4,2.4c-1,1.6-1,4-1.7,5.8c-2,4.8-3.6,9.9-5.5,14.4c0.5,0.1,0.5,0.1,0.7,0.2
	c-0.1,0-0.2,0-0.2,0c-0.2,0.2-0.4,0.3-0.7,0.5c0,0.1,0,0.2,0,0.2c0.1,0,0.2,0,0.2,0c0,0.1,0,0.2,0,0.2c1.9-1.2,6.5-0.3,7.7,0.7
	c-4-0.1-6.9,0.4-8.6,1.9c3.3-0.2,7.2-2,10.6-0.7c-0.2,0.6-0.3,0.2-0.5,0.5c-0.1,0.2,0.4,0.8,0.2,1.2c0,0.1,0,0.2,0,0.2
	c-0.9,0-3.4,0.8-4.8,1.2c-3.3,1-5.2,0.7-7.9,0.7c0-0.2,0-0.3,0-0.5c1.1,0,3.3-0.2,4.1-0.7c-2.2,0-3.9,0.5-6,0.2c0,0.1,0,0.2,0,0.2
	c0.4,0.2,0.2,0,0.5,0.2c-0.4,0-0.8,0-1.2,0c-0.2-0.2-0.8-0.3-1-0.5c0.2-0.1,0.5-0.2,0.7-0.2c-0.4-0.6-0.4-1.1-0.7-1.4
	c-0.4,0.3-0.7,0.5-1,0.2c-0.3-0.2-0.3-0.2-0.5-0.5c1-0.4,2.9-0.8,3.4-1.7c-0.7-1.1,0.1-3.4,0.2-4.6c0.6-4.2,3.1-7.9,3.8-11
	c0.1,0,0.2,0,0.2,0c0,0.1,0,0.2,0,0.2c0.2,0.2,0.1,0.1,0.2,0.5c-1,1.4-2,4.6-2.4,6.2c-0.2,1,0.4,1.3-0.2,2.2c-0.2-0.4,0-0.2-0.2-0.5
	c0,0.2,0,0.5,0,0.7c0.2,0.2,0.3,0.5,0.5,0.7c0.3-3.5,2.2-6.6,3.4-9.4C158.2,111.2,159.1,107.4,160.6,104.9z M196.3,104.9
	c0.5,0.1,0.5,0.1,0.7,0.2C196.5,105,196.6,105.1,196.3,104.9z M212.9,105.4c-0.1,0-0.2,0-0.2,0c0-0.2,0-0.3,0-0.5
	C212.8,105.1,212.7,104.9,212.9,105.4z M235.4,130.6c-0.2,1.3-0.2,0.7,0,2.2c-1.5,0-5,1.1-7.4,1.7c-1.8,0.1-3.7,0.2-5.5,0.2
	c0-0.2,0-0.3,0-0.5c1.3,0,3,0,4.1-0.7c-2,0.1-3.8,0.8-5.5,0.2c-0.1,0.6,0.1,0.4-1,0.5c-0.2-0.2-0.8-0.3-1-0.5
	c0.6-0.3,0.2,0.1,0.5-0.5c-0.6-0.3-0.2,0.1-0.5-0.5c0.4-0.2,0.2,0,0.5-0.2c-0.3,0.1-0.6,0.2-1,0.2c0-0.1,0-0.2,0-0.2
	c0.3-0.2,0.5-0.3,0.7-0.5c-0.7,0.1-1.1,0.4-1.4,0.2c-0.2-0.2-0.1-0.1-0.2-0.5c0.9-0.4,2.7-0.8,3.1-1.7c-0.5-0.8-0.1-3.6,0.2-4.8
	c0.7-2.5,3-10.1,4.3-10.8c0.2-0.3,0,0,0.2-0.2c0,0.2,0,0.5,0,0.7c-1.2,1.3-2.4,5.4-2.2,7.2c-0.3,0,0.1-0.2-0.2-0.2
	c-0.2-0.5-0.2,0.5-0.2,0.5c0.3,0.6,0,0.8,0,1.7c0.1,0,0.2,0,0.2,0c0.5-5.3,3.7-10.2,5.5-14.6c0.7-1.6,0.6-4.2,2.4-4.6
	c0.4,0.6,0.4,0.4,1.2,0.5c0.4,0.9,0.7,1.2,0.7,2.6c-0.8,1.3-1.1,4-1.7,5.5c-1.1,3-5.6,12.1-4.8,14.6c-0.6,0.1-0.6,0.1-1,0.2
	c0.2,0.2,0.1,0.1,0.5,0.2c0.4,0.1,2.8-0.9,4.1-0.5c0.1,0,0.6,0.7,0.7,0.7c0.9,0.2,1.8,0.3,2.6,0.5c0,0.1,0,0.2,0,0.2
	c-1.6,0-3.2,0-4.8,0c-0.6,1-2.8,1.2-3.6,1.9C228.5,131.3,231.7,130.2,235.4,130.6z M186.7,105.4c-0.4,0.6-0.9,0.4-1.4,0.7
	c-0.6,0-1.1,0-1.7,0c0-0.1,0-0.2,0-0.2c0.6-0.1,2.1-0.2,2.6-0.5C186.4,105.4,186.6,105.4,186.7,105.4z M139.7,106.1
	c-0.1,0-0.2,0-0.2,0c0-0.2,0-0.3,0-0.5C139.6,105.9,139.5,105.7,139.7,106.1z M286.1,105.6c0,0.2,0,0.3,0,0.5c-0.1,0-0.2,0-0.2,0
	c0-0.2,0-0.3,0-0.5C285.9,105.6,286,105.6,286.1,105.6z M183.4,106.1c-0.4-0.2-0.2,0-0.5-0.2C183.3,106,183.1,105.9,183.4,106.1z
	 M158.6,106.3c0.2,0.3,0.1,0.2,0.2,0.7c-0.1,0-0.2,0-0.2,0C158.6,106.8,158.6,106.6,158.6,106.3z M210.7,106.8c0.7,0,1,0.1,1.4,0.2
	c0,0.1,0,0.2,0,0.2c-2.1-0.4-3.7-0.5-6.5-0.5c0.4-0.2,1.5-0.2,1.9-0.5C208.8,106.3,209.8,106.2,210.7,106.8z M229.2,106.3
	c0.2,0.2,0.1,0.1,0.2,0.5c-0.1,0-0.2,0-0.2,0C229.2,106.6,229.2,106.5,229.2,106.3z M253,106.3c0,0.1,0,0.2,0,0.2
	c-2.8,1-5,6.2-7.4,7.9c0,0.1,0,0.2,0,0.2c-0.1,0-0.2,0-0.2,0c1-1.6,2.2-3,3.4-4.6c1.1-1.4,2.8-2.3,3.8-3.8
	C252.6,106.3,252.8,106.3,253,106.3z M175.4,106.8c-0.4-0.2-0.2,0-0.5-0.2C175.4,106.7,175.2,106.6,175.4,106.8z M179.3,106.6
	c0,0.1,0,0.2,0,0.2c-1.6,0.3-4.1,0.6-5.3,1.4c-0.3,0-0.6,0-1,0c0-0.1,0-0.2,0-0.2c1.7-0.8,4-0.3,5.8-1.4
	C179,106.6,179.1,106.6,179.3,106.6z M228.5,106.6c0.2,0.3,0.1,0.2,0.2,0.7c-0.1,0-0.2,0-0.2,0C228.5,107,228.5,106.8,228.5,106.6z
	 M121.9,108.2c0.3,1,1.3,2.7,0.7,3.6c0.3,0.7,0.1,0.2,0.7,0.5c-0.6,3.5-4.7,6.1-7.7,7.4c0-0.1,0-0.2,0-0.2c-0.1,0-0.2,0-0.2,0
	c0.3-0.6,0.9-0.3,1.4-1.2c0.2,0,0.3,0,0.5,0c0-0.1,0-0.2,0-0.2c-2.1,0.4-4,2.6-6.2,1.9c0,0.1,0,0.2,0,0.2c-0.1,0-0.2,0-0.2,0
	c0.2-1.6,1-2.6,1.4-3.8c1.1-3.1,1.8-6.2,1.9-9.6C117.8,106.8,119.5,107.6,121.9,108.2z M193.2,106.8c-0.4,0.3-1,0.3-1.4,0
	C192.2,106.8,192.7,106.8,193.2,106.8z M194.6,107.5c-0.3-0.2-0.3-0.2-0.5-0.5c-0.2,0-0.3,0-0.5,0c0-0.1,0-0.2,0-0.2
	c0.3,0,0.6,0,1,0C194.6,107,194.6,107.3,194.6,107.5z M158.4,107c0.2,0.2,0.1,0.1,0.2,0.5c-0.1,0-0.2,0-0.2,0
	C158.4,107.4,158.4,107.2,158.4,107z M198.2,107.3c-0.4-0.2-0.2,0-0.5-0.2C198.2,107.2,198,107.1,198.2,107.3z M213.1,107
	c0,0.1,0,0.2,0,0.2c-0.3,0.2,0,0-0.2,0.2c-0.2,0-0.3,0-0.5,0c0-0.2,0-0.3,0-0.5C212.6,107,212.9,107,213.1,107z M251.8,111.8
	c0,0.1,0,0.2,0,0.2c-0.1,0-0.2,0-0.2,0c1.1-2.1,3.1-3.2,4.3-5C256,107.1,252.5,111.2,251.8,111.8z M280.6,111.4c0,0.1,0,0.2,0,0.2
	c-0.1,0-0.2,0-0.2,0c0.7-1.5,1.8-2.9,2.2-4.6C282.8,107.8,281.3,110.7,280.6,111.4z M228.2,107.3c0.2,0.2,0.1,0.1,0.2,0.5
	c-0.1,0-0.2,0-0.2,0C228.2,107.6,228.2,107.4,228.2,107.3z M158.2,107.5c0.3,0.5,0.1,0.5,0,1.2c-0.1,0-0.2,0-0.2,0
	c0-0.2,0-0.5,0-0.7C158.1,107.8,158,107.9,158.2,107.5z M135.1,107.8c0.2,0.5,0.1,0.2,0,0.7c-0.1,0-0.2,0-0.2,0
	C135,108.2,135,108,135.1,107.8z M214.3,108.2c-0.6-0.2-0.4-0.1-0.7-0.5C213.9,107.9,214.1,108,214.3,108.2z M228,107.8
	c0.3,0.5,0.1,0.5,0,1.2c-0.1,0-0.2,0-0.2,0c0-0.2,0-0.5,0-0.7C228,108,227.8,108.2,228,107.8z M134.6,108.5c0.1,0.5,0.2,0.2-0.2,0.7
	c0,0.1,0,0.2,0,0.2c-0.1,0-0.2,0-0.2,0C134.3,108.9,134.4,108.9,134.6,108.5z M256.8,110.9c0,0-0.1-0.9-0.2-0.5
	c-0.3,0,0.1,0.3-0.2,0.2c0-0.2,0-0.3,0-0.5c0.8-0.4,1.4-0.9,1.9-1.7c0.1,0,0.2,0,0.2,0c-0.2,0.3-0.2,0.3-0.5,0.5c0,0.3,0,0.6,0,1
	c1.2-0.5,1.8-1.5,2.4-1c0.4-0.3,0,0,0.2-0.5c0.1,0,0.2,0,0.2,0c-0.1,0.5-0.2,1-0.2,1.4c-0.2-0.2-0.1-0.1-0.2-0.5
	c-0.6,0.4-2,4.3-2.2,5.3c-0.9,0.1-2.6,0.1-3.8,1c-0.4,0-0.8,0-1.2,0c0.7-1.2,1.8-3.8,3.4-4.1C256.7,111.1,256.6,111.1,256.8,110.9z
	 M157.7,108.7c0.3,0.5,0.1,0.5,0,1.2c-0.1,0-0.2,0-0.2,0c0-0.2,0-0.5,0-0.7C157.6,109,157.5,109.1,157.7,108.7z M214.8,111.8
	c-0.4-0.2-0.4-0.3-1-0.5c-0.2-0.2-0.1-0.1-0.5-0.2c0,0.1,0,0.2,0,0.2c-0.1,0-0.2,0-0.2,0c0.4,1.1,0.9,1.3,1.9,1.9
	c-0.5,0.7-1,1.4-1.9,1.7c0,0.2,0,0.3,0,0.5c0.5-0.3,1.7-1.2,1.9-1c0.2,0,0.3,0,0.5,0c-0.4,1.7-2.2,2.2-3.1,3.4c-0.2,0-0.3,0-0.5,0
	c0.2,0.2,0.1,0.1,0.5,0.2c-0.4,0.4-2.1,2.2-3.1,1.7c-0.2,0-0.3,0-0.5,0l0.2,0.2c0,0.1,0,0.2,0,0.2c-1.3-0.5-1.5,0.7-2.6,0
	c-0.2,0.3-0.2,0.2-0.2,0.7c-0.2,0-0.5,0-0.7,0c0.2-0.2,0.1-0.1,0.5-0.2c-0.3-0.2-0.6-0.2-1.2-0.2c0-0.1,0-0.2,0-0.2
	c0.1,0,0.2,0,0.2,0c1.1-1.2,5.8-1.6,7.2-3.4c0.3-0.2,0,0,0.2-0.2c-0.1,0-0.2,0-0.2,0c-0.1-0.2-0.7,0.4-1,0.7c-0.2,0-0.3,0-0.5,0
	c0.3-0.7,1.1-1.2,1.9-1.4c0-0.7-0.2-0.3,0-0.7c0-0.2,0-0.3,0-0.5c-1.3,0.6-3.7,1.4-4.8,2.4c-0.2,0-0.3,0-0.5,0c0-0.1,0-0.2,0-0.2
	c2-0.5,3.3-1.7,4.8-2.4c0.3-0.6,0.1-0.5,0.5-1.2c-0.1,0-0.2,0-0.2,0c-1-0.3-1.2,0.8-1.9,1.4c-1,0.9-4.7,1.7-6.2,2.9
	c-0.1,0-0.2,0-0.2,0c-0.1-1.1-0.4-1.8,0.2-2.6c0-0.2,0-0.5,0-0.7c-0.1,0-0.2,0-0.2,0c-0.3,1.2-0.6,2.4-1,3.6c-0.2,0-0.3,0-0.5,0
	c0.7-1.9,1.6-4.3,1.7-6.5c0.4,0.7,0.1,1.4,0,2.4c0.2-0.2,0.3-0.8,0.5-1c0-1.3-0.2-1.8,0.5-1.9c-0.2-0.7,0.1-0.4-0.5-0.5
	c0-0.5,0-1,0-1.4C208.2,108.6,213.4,109.3,214.8,111.8z M227.5,109c0.3,0.5,0.1,0.5,0,1.2c-0.1,0-0.2,0-0.2,0c0-0.2,0-0.5,0-0.7
	C227.5,109.2,227.4,109.4,227.5,109z M279.4,109c0.2,0.2,0.1,0.1,0.2,0.5c-0.1,0-0.2,0-0.2,0C279.4,109.3,279.4,109.1,279.4,109z
	 M138,109.4c-0.3,1.4-1.5,3.2-2.4,4.1c0,0.2,0,0.3,0,0.5c-0.1,0-0.2,0-0.2,0c0.3-1.8,1.6-3,2.2-4.6
	C137.7,109.4,137.8,109.4,138,109.4z M200.2,109.4c0,0.2,0,0.5,0,0.7c-0.2,0-0.5,0-0.7,0c0-0.2,0-0.5,0-0.7
	C199.7,109.4,199.9,109.4,200.2,109.4z M279.1,109.4c0.2,0.5,0.1,0.2,0,0.7c-0.1,0-0.2,0-0.2,0C279,109.9,279,109.7,279.1,109.4z
	 M132.7,115.9c-0.1,0-0.2,0-0.2,0c0.8-2.3,2.8-4.1,3.8-6.2c0.1,0,0.2,0,0.2,0c-0.8,1.5-2.1,3.7-2.9,4.6c-0.3,0.2,0.1,0,0.2,0.2
	c0,0.1,0,0.2,0,0.2c-0.2,0.1-0.5,0.2-0.7,0.2c0.2,0.6,0.5,0.8,0.5,1c-0.2,0.6-0.3,1-0.7,1.4c0,0.1,0,0.2,0,0.2c-0.1,0-0.2,0-0.2,0
	c0.3-0.7,0.6-1,0.7-1.9C132.9,115.8,133,115.7,132.7,115.9z M108.2,114.5c0,0.1,0,0.2,0,0.2c-0.1,0-0.2,0-0.2,0
	c0.5-1.7,1.5-3,1.9-4.8C110.4,110.9,108.9,113.7,108.2,114.5z M227.8,109.9c0.2,0.2,0.1,0.1,0.2,0.5c-0.1,0-0.2,0-0.2,0
	C227.8,110.2,227.8,110.1,227.8,109.9z M104.9,110.2c0.4,0.7,0.1,3-0.2,3.8c-0.1,0-0.2,0-0.2,0c0-0.9,0-1.8,0-2.6
	C104.7,111,104.8,110.7,104.9,110.2z M106.1,110.2c0.1,0.1,0.5,0.3,0.2,0.7C105.7,110.4,106.3,110.5,106.1,110.2z M133.4,110.2
	c0.2,0,0.3,0,0.5,0c-0.2,0.3-0.2,0.3-0.5,0.5c0,0.1,0,0.2,0,0.2c-0.1,0-0.2,0-0.2,0C133.3,110.6,133.4,110.4,133.4,110.2z
	 M157,110.2c0.2,0,0.3,0,0.5,0c0,0.1,0,0.2,0,0.2C157,110.3,157.2,110.4,157,110.2z M227,110.2c0.2,0.2,0.1,0.1,0.2,0.5
	c-0.1,0-0.2,0-0.2,0C227,110.5,227,110.3,227,110.2z M113,110.9c0,0.2,0,0.3,0,0.5c-0.1,0-0.2,0-0.2,0c0-0.2,0-0.3,0-0.5
	C112.9,110.9,113,110.9,113,110.9z M133,110.9c0.3,0.5-0.2,1.3-0.7,1.7c0,0.1,0,0.2,0,0.2c-0.1,0-0.2,0-0.2,0c0-0.2,0-0.3,0-0.5
	C132.4,111.9,132.7,111.4,133,110.9z M226.6,110.9c0.2,0,0.3,0,0.5,0c0,0.1,0,0.2,0,0.2C226.6,111,226.8,111.1,226.6,110.9z
	 M205.2,111.1c0.5,0.8-0.2,3.2-0.7,3.8C204.7,113.7,205,112.4,205.2,111.1z M177.8,111.4c-0.6,1.9-2.4,3.6-3.4,5.3
	c-0.1,0-0.2,0-0.2,0c0.7-2,2.6-3.1,3.1-5.3C177.5,111.4,177.7,111.4,177.8,111.4z M277.9,111.4c0.2,0.2,0.1,0.1,0.2,0.5
	c-0.1,0-0.2,0-0.2,0C277.9,111.7,277.9,111.5,277.9,111.4z M142.3,112.1c3.8,1.3,2.8,7.8,0.2,10.3c0,0,0.1,0.9,0.2,0.5
	c0-0.1,0-0.2,0-0.2c0.1,0,0.2,0,0.2,0c-0.4,0.8-0.7,1.4-1.4,1.9c0,0.1,0,0.2,0,0.2c-0.1,0-0.2,0-0.2,0c0.2-0.4,0.4-0.5,0.7-0.7
	c0-0.2,0-0.3,0-0.5c-2.7,1.7-3.9,4.7-7.2,6c0-0.1,0-0.2,0-0.2c-0.1,0-0.2,0-0.2,0c-0.1-6,2.8-11.9,5.3-15.1c0.6-0.8-0.3-2,1-1.9
	c-0.1-0.2-0.2-0.5-0.2-0.7C141.1,111.7,141.7,111.7,142.3,112.1z M215.5,112.3c-0.2,0.4,0,0.2-0.2,0.5c0-0.1,0-0.2,0-0.2
	c-0.1,0-0.2,0-0.2,0c0.1-0.6,0.1-0.6,0.2-1C215.6,112,215.8,112,215.5,112.3z M277.7,111.8c0.2,0.2,0.1,0.1,0.2,0.5
	c-0.1,0-0.2,0-0.2,0C277.7,112.2,277.7,112,277.7,111.8z M277.4,116.9c0,0.1,0,0.2,0,0.2c-0.1,0-0.2,0-0.2,0c1-1.8,1.9-3.5,2.9-5.3
	C280.5,112.4,278.1,116.2,277.4,116.9z M112.6,112.3c0,0.2,0,0.3,0,0.5c-0.1,0-0.2,0-0.2,0c0-0.2,0-0.3,0-0.5
	C112.4,112.3,112.5,112.3,112.6,112.3z M212.6,112.6c0.2,0.3,0.1,0.2,0.2,0.7c-0.1,0-0.2,0-0.2,0C212.6,113,212.6,112.8,212.6,112.6
	z M254.4,113c-0.1-0.1-0.6-0.1-0.5-0.5C254,112.6,254.6,112.8,254.4,113z M131.8,112.8c0.3,0.6-0.4,1.4-0.7,2.2c-0.1,0-0.2,0-0.2,0
	c0-0.2,0-0.5,0-0.7C131.3,113.9,131.5,113.4,131.8,112.8z M277.2,112.8c0.3,0.6-1.5,3.3-2.2,3.8c-0.2,0.3,0,0-0.2,0.2
	c0-0.2,0-0.3,0-0.5C275.6,115.2,276.4,114,277.2,112.8z M156,113c0.2,0.2,0.1,0.1,0.2,0.5c-0.1,0-0.2,0-0.2,0
	C156,113.4,156,113.2,156,113z M225.8,113c0.2,0.2,0.1,0.1,0.2,0.5c-0.1,0-0.2,0-0.2,0C225.8,113.4,225.8,113.2,225.8,113z
	 M105.1,113.3c0.2,0.3,0.1,0.2,0.2,0.7c-0.1,0-0.2,0-0.2,0C105.1,113.8,105.1,113.5,105.1,113.3z M219.6,114.7c-0.1,0-0.2,0-0.2,0
	c-0.1-0.4-0.2-0.8-0.2-1.2C219.4,113.9,219.5,114.2,219.6,114.7z M155.3,113.8c0.5,0.1,0.5,0.1,0.7,0.2c-0.2,0.2-0.1,0.1-0.2,0.5
	C155.5,114.3,155.4,114.1,155.3,113.8z M225.4,113.8c0.2,0,0.3,0,0.5,0C225.6,114.2,225.7,114.1,225.4,113.8z M105.4,114
	c0.2,0.3,0.4,0.9,0.5,1.2c-0.2,0-0.3,0-0.5,0c-0.2-0.4,0-0.2-0.2-0.5C105.2,114.5,105.3,114.2,105.4,114z M125.8,114.5
	c-0.1,0-0.2,0-0.2,0c0-0.2,0-0.3,0-0.5C125.7,114.3,125.6,114.1,125.8,114.5z M214.8,114.5c0.2,0.2,0.1,0.1,0.2,0.5
	c-0.1,0-0.2,0-0.2,0C214.8,114.8,214.8,114.6,214.8,114.5z M253.7,114.5c0.2,0,0.3,0,0.5,0c-0.2,0.3,0,0-0.2,0.2c0,0.1,0,0.2,0,0.2
	C253.7,114.7,253.8,114.9,253.7,114.5z M271.9,115c-0.1,0-0.2,0-0.2,0c0-0.2,0-0.3,0-0.5C271.9,114.7,271.8,114.5,271.9,115z
	 M108.2,115.2c-0.2,0.1-0.3,0.2-0.5,0.2c0,0.2,0,0.3,0,0.5c-0.1,0-0.2,0-0.2,0c0.1-0.3,0.2-0.6,0.2-1
	C108.2,115.1,108,115,108.2,115.2z M214.3,115c0.2,0,0.3,0,0.5,0c-0.2,0.3,0,0-0.2,0.2C214.4,115.2,214.1,115.2,214.3,115z
	 M124.6,117.6c-0.1,0-0.2,0-0.2,0c-0.1-0.2-0.2-0.5-0.2-0.7c0.4-0.4,0.6-1,0.7-1.7C125.3,116,124.7,116.7,124.6,117.6z M204.2,115.2
	c0.3,0.5,0.1,0.8,0,1.4c-0.1,0-0.2,0-0.2,0c0-0.2,0-0.5,0-0.7C204.2,115.7,204.1,115.7,204.2,115.2z M130.3,115.4c0.2,0,0.3,0,0.5,0
	c0,0.1,0,0.2,0,0.2C130.4,115.5,130.6,115.6,130.3,115.4z M213.6,115.4c0.2,0,0.3,0,0.5,0c-0.3,0.7-0.2,0.6-0.5,1.2
	C213.1,115.9,213.3,116.2,213.6,115.4z M257,115.4c-0.4,0.2-0.5,0.3-1,0C256.4,115.4,256.7,115.4,257,115.4z M272.4,115.9
	c0,0.2,0,0.5,0,0.7c-0.3-0.3-0.4-0.7-0.5-1.2C272.1,115.6,272.2,115.7,272.4,115.9z M112.6,115.7c0.2,0,0.3,0,0.5,0
	c-0.2,0.5-0.3,1-0.5,1.4c-0.1,0-0.2,0-0.2,0c0-0.2,0-0.5,0-0.7C112.5,116.1,112.5,116.2,112.6,115.7z M255.8,115.7
	c-0.7,0.5-2.2,0.4-2.9,1c-0.2,0-0.3,0-0.5,0c0-0.1,0-0.2,0-0.2c0.7-0.2,1.4-0.5,2.2-0.7C255,115.7,255.4,115.7,255.8,115.7z
	 M212.6,115.9c0.4,0.6,0.5,0.4-0.2,0.7c0-0.1,0-0.2,0-0.2C212.6,116.2,212.5,116.3,212.6,115.9z M107.3,116.6c0,0.2,0,0.3,0,0.5
	c-0.1,0-0.2,0-0.2,0c0.1-0.3,0.2-0.6,0.2-1C107.4,116.5,107.6,116.3,107.3,116.6z M132.5,116.6c-0.1,0-0.2,0-0.2,0
	c0-0.2,0-0.3,0-0.5C132.4,116.4,132.3,116.2,132.5,116.6z M260.2,116.2c0,0.2,0,0.3,0,0.5c-0.2,0.2-0.3,0.3-0.5,0.5
	c0,0.1,0,0.2,0,0.2c-0.2,0-0.3,0-0.5,0c0.2-0.4,0.3-0.6,0.5-1.2C259.8,116.2,260,116.2,260.2,116.2z M262.3,116.6c0-0.2,0-0.3,0-0.5
	c0.8,0.1,1.6,0.2,2.4,0.2c0.4,0.6,0.6,1,1.4,1.2c0,0.2,0,0.3,0,0.5c-1.4-0.6-2.1-0.6-4.1-0.5C262.1,117,262.1,116.9,262.3,116.6z
	 M118.8,116.6c0.2,0,0.3,0,0.5,0c0,0.1,0,0.2,0,0.2c-0.1,0-0.2,0-0.2,0c0,0.1,0,0.2,0,0.2C118.8,116.9,119,117.1,118.8,116.6z
	 M255.4,116.6c-0.4,0.2-0.5,0.3-1,0C254.7,116.6,255,116.6,255.4,116.6z M257.3,116.6c-0.1,0.5-0.1,0.5-0.2,0.7
	c-0.8,1.3-4.5,1.1-5.8,1.9c-0.2,0-0.3,0-0.5,0c0-0.1,0-0.2,0-0.2c0.1,0,0.2,0,0.2,0c1-1.2,4.8-1.6,5.8-2.4
	C257,116.6,257.1,116.6,257.3,116.6z M203.8,117.4c-0.1,0-0.2,0-0.2,0c0-0.2,0-0.3,0-0.5C203.7,117.1,203.6,116.9,203.8,117.4z
	 M254.2,116.9c-0.2,0.2-0.8,0.3-1,0.5c-0.2,0-0.5,0-0.7,0c0.2-0.2,0.5-0.3,0.7-0.5C253.5,116.9,253.8,116.9,254.2,116.9z
	 M112.1,117.1c0.2,0.3,0.1,0.2,0.2,0.7c-0.1,0-0.2,0-0.2,0C112.1,117.6,112.1,117.4,112.1,117.1z M118.3,117.1
	c0.2,0.2,0.1,0.1,0.2,0.5c-0.6,0.2-0.6,0.3-1.2,0.5c0-0.1,0-0.2,0-0.2c0.1,0,0.2,0,0.2,0C117.8,117.5,118.1,117.4,118.3,117.1z
	 M132,118.1c-0.2,0-0.3,0-0.5,0c0.1-0.3,0.2-0.6,0.2-1C132,117.5,131.8,117.6,132,118.1z M147.4,120c-0.4-0.6-0.5-2-0.5-2.9
	C147.6,117.6,147.4,118.9,147.4,120z M183.6,117.1c-0.4,0.3-1.2,0.3-1.7,0C182.5,117.1,183,117.1,183.6,117.1z M210.5,117.1
	c0,0.2,0,0.3,0,0.5c-0.2,0.1-0.5,0.2-0.7,0.2c0.2-0.2,0.3-0.5,0.5-0.7C210.3,117.1,210.4,117.1,210.5,117.1z M273.1,118.3
	c0,0.2,0,0.5,0,0.7c-0.1,0-0.2,0-0.2,0c-0.2-0.6-0.3-1.3-0.5-1.9C272.7,117.4,272.8,118,273.1,118.3z M185,117.4
	c-0.6,1-2.2,0.9-3.1,1.4c-0.9,0-1.8,0-2.6,0c0.5-0.7,0.7-0.6,0.7-1.2c1,0.2,3.6,0.4,4.6-0.2C184.7,117.4,184.9,117.4,185,117.4z
	 M170.9,117.6c0.2,0.5,0.1,0.2,0,0.7c-0.1,0-0.2,0-0.2,0C170.7,118.1,170.8,117.8,170.9,117.6z M242.9,118.3c0,0.1,0,0.2,0,0.2
	c-0.1,0-0.2,0-0.2,0c0.2-0.3,0.3-0.6,0.5-1C243.3,117.9,243.2,117.9,242.9,118.3z M111.8,117.8c0.2,0.3,0.1,0.2,0.2,0.7
	c-0.1,0-0.2,0-0.2,0C111.8,118.3,111.8,118.1,111.8,117.8z M210.5,118.3c0.2,0,0.3,0,0.5,0c0,0.1,0,0.2,0,0.2
	C210.5,118.4,210.7,118.5,210.5,118.3z M174,118.6c0,0.1,0,0.2,0,0.2c-0.1,0-0.2,0-0.2,0c-0.4,0.9-0.8,0.7-1.4,1.2
	c-0.1,0-0.2,0-0.2,0c0.2-0.4,0.5-0.8,0.7-1.2c0.5-0.1,0.5-0.1,0.7-0.2C173.7,118.6,173.8,118.6,174,118.6z M211.2,118.6
	c0.2,0,0.3,0,0.5,0c0,0.1,0,0.2,0,0.2C211.3,118.7,211.4,118.8,211.2,118.6z M245.3,119c-0.1,0-0.2,0-0.2,0c0,0.1,0,0.2,0,0.2
	c-0.1,0-0.2,0-0.2,0c0-0.2,0-0.3,0-0.5C245.2,119,245,118.9,245.3,119z M276.7,119.3c-0.2,0.7-0.5,1.2-1,1.7c0,0.1,0,0.2,0,0.2
	c-0.1,0-0.2,0-0.2,0c0.2-1,0.5-1.1,0.7-1.9C276.4,119.3,276.6,119.3,276.7,119.3z M244.3,120c0.1-0.2,0.2-0.3,0.2-0.5
	C244.6,119.5,244.7,119.7,244.3,120z M259,119.5c-1,2.1-1.8,5.3-3.4,7c0,0.2,0,0.3,0,0.5c-0.1,0-0.2,0-0.2,0
	c0.7-2.7,2.5-4.6,2.9-7.4C258.5,119.5,258.7,119.5,259,119.5z M277.4,120.5c0,0.1,0,0.2,0,0.2c-0.1,0-0.2,0-0.2,0
	c0.2-0.3,0.3-0.6,0.5-1C277.9,120.1,277.8,120.1,277.4,120.5z M244.6,120.2c0,0.1,0,0.2,0,0.2c-0.1,0-0.2,0-0.2,0
	c-0.2,0.4,0,0.2-0.2,0.5c0,0.1,0,0.2,0,0.2c-0.2,0-0.3,0-0.5,0c0.2-0.6,0.2-0.5,0.5-1C244.2,120.2,244.4,120.2,244.6,120.2z
	 M172.3,120.7c-0.6,0.9-0.6,2.9-1.7,3.8c0,0.2,0,0.3,0,0.5c-0.1,0-0.2,0-0.2,0c0.2-0.6,0.3-1,0.7-1.4c0-0.2,0-0.5,0-0.7
	c-0.2,0.2-0.3,0.4-0.5,0.7c-0.1,0-0.2,0-0.2,0c0.3-1.1,0.9-1.7,1.2-2.9C171.8,120.7,172.1,120.7,172.3,120.7z M250.8,121
	c-0.3,0.2,0,0-0.2,0.2c0,0-0.9-0.1-0.5-0.2c0.1,0,0.2,0,0.2,0c0-0.1,0-0.2,0-0.2C250.7,120.9,250.6,120.8,250.8,121z M216,121
	c0.2,0.2,0.1,0.1,0.2,0.5c-0.6,0.2-0.8,0.3-1.2,0.7c-0.2,0-0.3,0-0.5,0c0-0.1,0-0.2,0-0.2c0.1,0,0.2,0,0.2,0
	C215.2,121.6,215.6,121.3,216,121z M134.6,121.7c-0.1,0-0.2,0-0.2,0c0-0.2,0-0.3,0-0.5C134.6,121.5,134.5,121.3,134.6,121.7z
	 M140.9,129.4c0,0.1,0,0.2,0,0.2c-0.1,0-0.2,0-0.2,0c1.7-2.7,4.4-5,5.3-8.4C146.6,122.5,142,128.6,140.9,129.4z M143.3,121.9
	c0.1-0.2,0.2-0.3,0.2-0.5C143.5,121.4,143.7,121.6,143.3,121.9z M153.4,121.4c0.2,0.2,0.1,0.1,0.2,0.5c-0.1,0-0.2,0-0.2,0
	C153.4,121.8,153.4,121.6,153.4,121.4z M276.5,121.9c0.1-0.2,0.2-0.3,0.2-0.5C276.7,121.4,276.9,121.6,276.5,121.9z M224.6,122.2
	c0,0.2,0,0.3,0,0.5c-0.1,0-0.2,0-0.2,0c0.1-0.3,0.2-0.6,0.2-1C224.8,122,224.9,121.8,224.6,122.2z M134.4,122.4c-0.1,0-0.2,0-0.2,0
	c0-0.2,0-0.3,0-0.5C134.4,122.2,134.2,122,134.4,122.4z M155,121.9c-0.5,0.9-0.8,2.4-1,3.6c-0.2,0-0.3,0-0.5,0
	c0.2-1.4,0.7-2.3,1-3.6C154.7,121.9,154.9,121.9,155,121.9z M276.2,122.6c0,0.1,0,0.2,0,0.2c-0.1,0-0.2,0-0.2,0
	c0.1-0.2,0.2-0.5,0.2-0.7C276.4,122.5,276.5,122.3,276.2,122.6z M151,122.4c0.2,0.2,0.1,0.1,0.2,0.5c-0.1,0-0.2,0-0.2,0
	C151,122.7,151,122.6,151,122.4z M212.9,122.4c0.3,0,0.6,0,1,0c0,0.1,0,0.2,0,0.2c-0.1,0-0.2,0-0.2,0
	C213.1,122.8,213.4,122.9,212.9,122.4z M134.4,123.1c-0.1-0.1-0.6-0.1-0.5-0.5C134,122.7,134.6,122.9,134.4,123.1z M144,123.8
	c-0.1,0-0.2,0-0.2,0c0.2-0.4,0.5-0.8,0.7-1.2C144.7,123,144.3,123.3,144,123.8z M212.4,122.6c0.2,0,0.3,0,0.5,0c0,0.1,0,0.2,0,0.2
	C212.5,122.7,212.6,122.8,212.4,122.6z M239.5,123.1c-1.2,1.1-2.5,2.3-3.8,3.1c0-0.1,0-0.2,0-0.2c-0.1,0-0.2,0-0.2,0
	c0.2-2.2,2.6-2.2,3.8-3.4C239.5,122.9,239.4,122.7,239.5,123.1z M142.3,122.9c0.2,0.5,0.1,0.2,0,0.7c-0.1,0-0.2,0-0.2,0
	C142.2,123.4,142.2,123.1,142.3,122.9z M223.7,125.8c0,0.1,0,0.2,0,0.2c-0.1,0-0.2,0-0.2,0c0.2-0.7,0.5-2,0.7-3.1
	C224.7,123.5,224.4,125,223.7,125.8z M274.6,123.4c-0.1,0-0.2,0-0.2,0c0-0.2,0-0.3,0-0.5C274.5,123.1,274.4,122.9,274.6,123.4z
	 M150.7,123.1c0.2,0.3,0.1,0.2,0.2,0.7c-0.1,0-0.2,0-0.2,0C150.7,123.6,150.7,123.4,150.7,123.1z M271.9,123.1
	c-0.4,0.9-1,1.5-1.2,2.6c-0.1,0-0.2,0-0.2,0c0.2-1.2,0.7-1.6,1-2.6C271.6,123.1,271.8,123.1,271.9,123.1z M133.9,123.4
	c0,0.2,0,0.3,0,0.5c-0.1,0-0.2,0-0.2,0c0-0.2,0-0.3,0-0.5C133.8,123.4,133.8,123.4,133.9,123.4z M220.6,123.4
	c0.2,0.3,0.1,0.2,0.2,0.7c-0.1,0-0.2,0-0.2,0C220.6,123.8,220.6,123.6,220.6,123.4z M143,124.1c-0.1,0-0.2,0-0.2,0
	c-0.2,0.4,0,0.2-0.2,0.5c0,0.1,0,0.2,0,0.2c-0.1,0-0.2,0-0.2,0c0.2-0.3,0.3-0.6,0.5-1C142.8,123.8,143.3,123.8,143,124.1z
	 M271.7,131.3c0,0.1,0,0.2,0,0.2c-0.1,0-0.2,0-0.2,0c1.3-2.6,2.7-5.1,3.8-7.7C275.4,124.3,272.4,130.5,271.7,131.3z M143,124.8
	c0.2-0.2,0.3-0.5,0.5-0.7C144.2,124.2,143.1,124.9,143,124.8z M109.9,125c0,0-0.7-0.7-0.7-0.7C109.3,124.5,110,124.7,109.9,125z
	 M133.7,124.8c-0.1,0-0.2,0-0.2,0c0-0.2,0-0.3,0-0.5C133.6,124.6,133.5,124.4,133.7,124.8z M193.7,124.6c0.2,0.3,0.1,0.2,0.2,0.7
	c-0.1,0-0.2,0-0.2,0C193.7,125,193.7,124.8,193.7,124.6z M241,127.9c0,0.1,0,0.2,0,0.2c-0.1,0-0.2,0-0.2,0c0-0.1,0-0.2,0-0.2
	c-0.1,0-0.2,0-0.2,0c0.1-1.6,0.6-2.2,1.4-3.1C242.2,125.4,241.5,127.3,241,127.9z M279.6,124.8c0.2,0.2,0.1,0.1,0.2,0.5
	c-0.1,0-0.2,0-0.2,0C279.6,125.1,279.6,125,279.6,124.8z M139.4,127.2c0,0.1,0,0.2,0,0.2c-0.1,0-0.2,0-0.2,0
	c0.6-0.8,1.3-1.6,1.9-2.4C141.5,125.4,140,126.9,139.4,127.2z M276.5,127.2c0,0.1,0,0.2,0,0.2c-0.1,0-0.2,0-0.2,0
	c0.3-0.6,0.6-1.3,1-1.9C277.5,126.1,277,126.7,276.5,127.2z M113.8,130.6c0.9,0.6,1.8,0.8,2.4,1.7c-3-1.5-4.4-4.3-7-6
	c0-0.2,0-0.3,0-0.5C110.7,127.4,112.2,129,113.8,130.6z M153.8,126c-0.1,0-0.2,0-0.2,0c0,0.1,0,0.2,0,0.2c-0.1,0-0.2,0-0.2,0
	c0-0.2,0-0.3,0-0.5C153.8,125.9,153.6,125.8,153.8,126z M278.9,125.8c0.2,0,0.3,0,0.5,0c0,0.2,0,0.3,0,0.5c-0.2,0-0.3,0-0.5,0
	C278.9,126.1,278.9,125.9,278.9,125.8z M193.4,126c0.1,0.1,0.5,0.1,0.2,0.5C193.4,126.4,192.9,126.1,193.4,126z M193.2,126.7
	c0.2,0.2,0.1,0.1,0.2,0.5c-0.1,0-0.2,0-0.2,0C193.2,127,193.2,126.9,193.2,126.7z M245.8,127.2c0,0.1,0,0.2,0,0.2
	c-0.1,0-0.2,0-0.2,0c0.1-0.2,0.2-0.5,0.2-0.7C245.9,127.1,246.1,126.8,245.8,127.2z M133.2,128.4c-0.2-0.3-0.2-0.8-0.2-1.4
	C133.2,127.3,133.2,127.8,133.2,128.4z M278.2,127.2c0.2,0,0.3,0,0.5,0c-0.2,0.3-0.3,0.6-0.5,1c-0.1,0-0.2,0-0.2,0
	c0-0.2,0-0.3,0-0.5C278.1,127.4,278,127.6,278.2,127.2z M157.7,127.4c2.5-0.1,6.3-0.1,7.2,1.4c-0.2,0-0.3,0-0.5,0
	c-0.6-0.3-1.2,0-1.7-0.2c0.4-0.2,0.2,0,0.5-0.2C162.7,128.4,158,127.9,157.7,127.4z M227.5,127.4c2.5-0.1,6.3-0.1,7.2,1.4
	c-0.2,0.2-0.3,0.3-0.5,0.5c-0.4-0.3-1.3-0.4-1.7-0.7c0.4-0.2,0.2,0,0.5-0.2C232.2,128.4,227.8,127.9,227.5,127.4z M139.4,127.9
	c-0.4,0.2-0.8,0.5-1.2,0.7c0.2-0.3,0.5-0.6,0.7-1C139.4,127.8,139.2,127.7,139.4,127.9z M157,127.7c0.2,0,0.3,0,0.5,0
	c0,0.1,0,0.2,0,0.2C157,127.8,157.2,127.9,157,127.7z M226.8,127.7c0.2,0,0.3,0,0.5,0c0,0.1,0,0.2,0,0.2
	C226.9,127.8,227,127.9,226.8,127.7z M277.7,128.2c0.2,0.2,0.1,0.1,0.2,0.5c-0.1,0-0.2,0-0.2,0C277.7,128.5,277.7,128.3,277.7,128.2
	z M142.3,128.9c0.1-0.2,0.2-0.3,0.2-0.5C142.6,128.4,142.7,128.6,142.3,128.9z M234.2,128.6c-0.4,0.2-0.3,0.2-0.7,0
	C233.8,128.6,234,128.6,234.2,128.6z M277.4,128.6c0.2,0.2,0.1,0.1,0.2,0.5c-0.1,0-0.2,0-0.2,0C277.4,129,277.4,128.8,277.4,128.6z
	 M163.4,128.9c0.6,0,0.7,0,1,0.2C163.8,129.1,163.7,129.1,163.4,128.9z M195.1,128.9c0.2,0.2,0.1,0.1,0.2,0.5c-0.1,0-0.2,0-0.2,0
	C195.1,129.2,195.1,129,195.1,128.9z M137,129.6c0.1-0.2,0.2-0.3,0.2-0.5C137.3,129.1,137.5,129.3,137,129.6z M277.2,129.1
	c0.2,0.5,0.1,0.2,0,0.7c-0.1,0-0.2,0-0.2,0c0-0.2,0-0.3,0-0.5c0.1,0,0.2,0,0.2,0C277.2,129.3,277.2,129.2,277.2,129.1z M109.4,129.4
	c0.8,0.2,0.9,0.4,1.2,1.2c0.1,0,0.2,0,0.2,0c0,0.1,0,0.2,0,0.2c-0.2,0-0.3,0-0.5,0C110.1,130.2,109.8,130,109.4,129.4z M143,129.4
	c0.3,0.4,0.2,0.1,0,0.5c-0.3,0.5-0.5,0.8-1.2,1C142.2,130.3,142.6,129.8,143,129.4z M151.7,130.3c-0.2-0.3-0.2-0.2-0.2-0.7
	C151.6,129.9,151.6,129.8,151.7,130.3z M168.7,130.1c-0.1,0-0.2,0-0.2,0c0-0.2,0-0.3,0-0.5C168.7,129.9,168.6,129.7,168.7,130.1z
	 M200.2,129.8c0.2,0.2,0.1,0.1,0.2,0.5c-0.1,0-0.2,0-0.2,0C200.2,130.2,200.2,130,200.2,129.8z M276.7,129.8
	c0.2,0.2,0.1,0.1,0.2,0.5c-0.1,0-0.2,0-0.2,0C276.7,130.2,276.7,130,276.7,129.8z M178.3,130.1c0,0.2,0,0.3,0,0.5
	c-0.2,0-0.3,0-0.5,0c0-0.2,0-0.3,0-0.5C178,130.1,178.2,130.1,178.3,130.1z M240.2,130.1c-0.1,0.8-0.3,2.2-0.7,2.9
	c0,0.2,0,0.3,0,0.5c-0.1,0-0.2,0-0.2,0c0.1-0.9,0.2-1.9,0.2-3.4C239.8,130.1,240,130.1,240.2,130.1z M255.1,130.6
	c-0.1,0-0.2,0-0.2,0c0-0.2,0-0.3,0-0.5C255.1,130.3,255,130.1,255.1,130.6z M276.5,130.3c0.2,0.2,0.1,0.1,0.2,0.5
	c-0.1,0-0.2,0-0.2,0C276.5,130.6,276.5,130.5,276.5,130.3z M110.9,130.8c0.9,0.3,4.9,3.5,5.3,4.3c-0.2,0-0.3,0-0.5,0
	C114.2,133.7,111.6,133,110.9,130.8z M192.7,131c0.3,0.4,0.3,1,0,1.4C192.7,132,192.7,131.5,192.7,131z M276,131c0.2,0,0.3,0,0.5,0
	c-0.1,0.2-0.2,0.5-0.2,0.7c-0.2,0-0.3,0-0.5,0c0-0.1,0-0.2,0-0.2C276,131.3,275.8,131.5,276,131z M267.8,131.5c0.2,0,0.3,0,0.5,0
	c0,0.1,0,0.2,0,0.2C267.9,131.6,268.1,131.7,267.8,131.5z M102.7,131.8c0.3,0.4,0.3,0.8,0,1.2C102.7,132.6,102.7,132.2,102.7,131.8z
	 M156,132c-0.4-0.2-0.2,0-0.5-0.2C155.9,131.9,155.8,131.8,156,132z M225.8,132c-0.4-0.2-0.2,0-0.5-0.2
	C225.8,131.9,225.6,131.8,225.8,132z M253.9,131.8c0.7,0.2,0.9-0.2,1.2,0.5c-0.4,0.3-0.5,0.5-0.7,1c-0.6,0-0.2,0-1,0.2
	c0-0.1,0-0.2,0-0.2C253.8,132.8,253.8,132.5,253.9,131.8z M139.7,132c0.2,0,0.3,0,0.5,0c0,0.1,0,0.2,0,0.2c-0.1,0-0.2,0-0.2,0
	C139.8,132.3,139.5,132.3,139.7,132z M224.6,132.2c-0.4-0.2-0.2,0-0.5-0.2C224.6,132.2,224.4,132.1,224.6,132.2z M275.5,132
	c0.2,0.2,0.1,0.1,0.2,0.5c-0.1,0-0.2,0-0.2,0C275.5,132.3,275.5,132.2,275.5,132z M116.9,133c-0.1,0-0.2,0-0.2,0
	c-0.1-0.2-0.2-0.5-0.2-0.7C116.8,132.6,116.7,132.4,116.9,133z M148.6,132.5c0.2,0,0.3,0,0.5,0c0,0.1,0,0.2,0,0.2
	c-0.2,0-0.3,0-0.5,0C148.6,132.6,148.6,132.6,148.6,132.5z M135.8,132.7c-0.4,0.2-0.3,0.2-0.7,0
	C135.4,132.7,135.6,132.7,135.8,132.7z M160.6,132.7c0,0.1,0,0.2,0,0.2c-0.5-0.1-0.5,0.3-0.5-0.2
	C160.2,132.7,160.4,132.7,160.6,132.7z M229.7,133.2c0-0.1,0-0.2,0-0.2c0.4-0.2,0.2,0,0.5-0.2C230.8,132.9,230,133.1,229.7,133.2z
	 M231.6,133c-0.4-0.2-0.2,0-0.5-0.2C231.5,132.9,231.4,132.8,231.6,133z M158.2,133.4c-0.4-0.2-0.2,0-0.5-0.2
	C158.1,133.4,157.9,133.3,158.2,133.4z M218.6,133.2c0.2,0,0.3,0,0.5,0c0,0.1,0,0.2,0,0.2c-0.2,0-0.3,0-0.5,0
	C218.6,133.4,218.6,133.3,218.6,133.2z M228,133.4c-0.4-0.2-0.2,0-0.5-0.2C227.9,133.4,227.8,133.3,228,133.4z M152.4,133.7
	c-0.4-0.2-0.2,0-0.5-0.2C152.3,133.6,152.2,133.5,152.4,133.7z M222.5,133.4c-0.4,0.2-0.3,0.2-0.7,0
	C222,133.4,222.2,133.4,222.5,133.4z M116.4,134.9c0.5,0.2,1,0.3,1.4,0.5c0,0.1,0,0.2,0,0.2c-0.4,0-0.8,0-1.2,0
	C116.2,135,116.4,135.6,116.4,134.9z"/>
</svg>
