<?xml version="1.0" encoding="utf-8"?>
<!-- Generator: Adobe Illustrator 26.1.0, SVG Export Plug-In . SVG Version: 6.00 Build 0)  -->
<svg version="1.1" id="Layer_1" xmlns="http://www.w3.org/2000/svg" xmlns:xlink="http://www.w3.org/1999/xlink" x="0px" y="0px"
	 viewBox="0 0 460.8 259.2" style="enable-background:new 0 0 460.8 259.2;" xml:space="preserve">
<style type="text/css">
	.st0{fill-rule:evenodd;clip-rule:evenodd;fill:none;}
</style>
<path class="st0" d="M225.6,100.6c0.2,0,0.5,0,0.7,0c0.6-0.8,1.1-0.9,1.9-1.4c2.6-1.9,5-4.3,7.7-6.2c1.5-1.1,2.5-3.1,4.8-3.4
	c1.4,1.4,3.4,2.2,5,3.4c1.3,0.9,2.7,2.2,4.1,3.1c1.3,0.8,2.4,0.4,2.6,2.4c0.1,5.2,0.2,10.4,0.2,15.6c0.3,3.2-0.2,8.6-1,11.8
	c-0.6,2.4-0.2,4.1-1,6.2c-3,8.6-8.8,14.3-16.6,18.2c-6,3-19.1,3.7-22.8-1.9c0.4-0.1,0.4-0.2,1-0.2c1.1,1,2.5,1.2,4.1,1.7
	c6.2,2,12.1-0.6,15.4-3.8c6.2-6.1,7.2-14.5,7.2-27.1c0-3.6,0.6-8.7-0.5-11.5c-1-2.7-4.6-3.4-6.5-5.3c-0.5,0.1-6.4,4.3-6.5,4.6
	c0,0.4,0,0.8,0,1.2c0.8,1.2,0.3,5,0.2,6.7c-0.1,4,0.3,10.8-0.5,15.4c0.8,2.1,3.2,2.6,3.4,5.3c-3.5,0.9-6.6,3.3-8.9,5.5
	c-1.3,1.2-2.1,3.5-4.1,3.8c-2.1-2.2-4.5-4.7-7-6.5c-1.2-0.9-2.5-0.8-2.6-2.9c2.5-1.6,5.5-5.1,6.2-8.4c-0.1-3.3-0.2-6.6-0.2-9.8
	c0.1-5.5,0.2-11,0.2-16.6c0.2-3.5-0.1-9.7,0-14.6c0-2.5,0.5-5.2-0.2-7.7c-0.6-1.9-3.6-5.9-5-7.2c0.7-1.2,3.2-4.5,4.6-4.8
	c1.2,1.1,5.1,3.4,6.5,2.9c1.9-0.7,2-2.5,3.1-4.1c2.1-2.9,6.1-6,10.8-4.1c0.1,0.2,0.2,0.5,0.2,0.7c-0.1,0-0.2,0-0.2,0
	c-1,0.6-2.6,0.2-3.4,1c-2.8,2.7-1.6,6.7-2.6,11.3c-0.6,2.9-0.4,7.9,0,10.8c0.1,0.8-0.2,2.6-0.2,3.8
	C225.8,92.5,225.9,96.8,225.6,100.6z M280.1,60c1.9-0.1,2.9,0.2,4.1,0.7c-0.2,0.4,0,0.2-0.2,0.5c-1.5,1-3,1.1-4.1,2.6
	c-2.8,4.2-1.9,15.1-1.9,22.1c0,15.5,0,29,0,44.6c0.1,0,0.2,0,0.2,0c0,0.1,0,0.2,0,0.2c0.3,0,6.3,1.4,6.5,1.4
	c0.2,0.3,0.1,0.2,0.2,0.7c-1.9,1.3-3,3.6-4.6,5.3c-2.1,2.3-4.4,4.4-6.5,6.7c-0.4-0.2-0.2,0-0.5-0.2c-3-0.9-6.2-4.2-9.1-5.8
	c-1.3-0.7-3.3-1.2-3.8-2.6c0.9-0.9,3.5-4.6,3.8-5.8c-0.1-8.2-0.2-16.5-0.2-24.7c0-4.2,0.8-9.2,0-13.2c-0.1-0.7,0.2-1.6,0.2-1.9
	c0-4.2,0-8.5,0-12.7c-0.8-2.9-4.4-4.8-4.8-7.4c1.5-1.1,2.1-4.4,4.3-4.6c2,2.1,4.3,2.8,7,3.1c1.2-1.8,3.6-5.7,5.3-7
	C277.2,61.3,279,61,280.1,60z M209,80.2c-0.2,2.5-3.8,7.3-5,9.4c-0.8,1.2-0.9,2.6-2.4,3.1c-1.7,1.2-7.1,1-9.1,0.7
	c-0.1,0.2-0.2,0.5-0.2,0.7c-0.5,0.8-0.5,4.3-0.2,5.5c1,4.9-0.8,13.3,0.2,18.2c0.5,2.2-1.2,5.5,0,7.4c0.4,1.4,4.2,4.1,5.8,3.4
	c2-0.6,2-2.6,4.3-2.9c1,0.7,2,0.6,2.2,2.2c-1,1.1-1.3,2.7-2.2,4.1c-1.4,2.3-3.1,4.9-4.6,7.2c-1,1.6-1,3.8-3.4,4.1
	c-1.2-1-3-1-4.6-1.7c-2.7-1.1-5.4-2.7-7.9-3.8c-1-0.5-3.1-0.7-3.6-1.7c0-4.7,0-9.4,0-14.2c0.4-1,0-4.9,0-6.7c0-5.6,0.7-12.3,0-16.1
	c-0.3-1.6,0.4-4.4,0-5.3c-0.4-0.6-0.7-0.5-1.7-0.5c-0.4-0.2-2.9,0-4.1,0c-0.1-0.2-0.2-0.5-0.2-0.7c1.5-1.6,2.5-3.7,3.8-5.5
	c1.6-2.2,3.7-4.1,5.3-6.2c2.2-3,4.3-6,7-8.6c2-2,4.7-5.7,8.9-4.1c0,0.2,0,0.3,0,0.5c-5.8,3.1-5.2,4.9-5,13.4
	c0.7,0.4,1.4,0.5,2.6,0.5c0.6,0.4,1.5,0.1,2.4,0.2C203.1,84,205.2,80.6,209,80.2z M85.7,117.6c0,5,0.2,11.9,0.2,18
	c0,2.6,0,5.3,0,7.9c0.7,2.1,3.6,3,4.1,5.3c-6.3,2.8-10.9,6.2-15.1,11c-1.6-0.5-7.2-6.2-8.6-7.7c-0.8-0.8-1.9-1.2-2.2-2.6
	c1-1,5.9-6.8,6.2-7.9c0-4.6,0-9.3,0-13.9c0-10.2,0-19.7,0-30.2c-0.4-0.1-0.4-0.2-1-0.2c-0.6,0.7-7.6,4.2-8.9,4.3c0-0.2,0-0.3,0-0.5
	c-0.6-0.9-0.5-3.1-0.5-4.6c3.5-1.9,7.1-3,9.8-5.5c0.4-7.7-10.2-10.9-18-7.7c-2.4,1-5.1,3.9-7,4.3c-0.1-0.2-0.2-0.5-0.2-0.7
	c2.2-1.5,3.3-4.6,5.5-6.2c5.1-3.7,10.5-5.6,17.5-7.4c3.1-0.8,8.4-1.2,11.5,0c2.3,0.9,4.1,3.1,5.3,5c0.7,1.2,0.3,2.5,1.9,2.9
	c0.7-0.9,1.9-1,2.9-1.7c2.4-1.7,5-3.7,7.4-5.3c1.3-0.8,2.6-1.2,3.6-2.2c6.6,3.1,11.3,7.2,13.2,14.9c0,1.4,0,2.9,0,4.3
	c0,4.3-0.2,8.5-0.2,12.5c-3.2,2-6.9,4.2-10.3,6c-1.3,0.7-2.3,0.3-2.6,1.9c1.4,0.4,2.1,1.4,3.1,2.2c3.2,2.2,6.3,4.5,9.4,6.7
	c1.1,0.8,2.8,1.2,3.4,2.4c0.8,1.2,0.2,3.7,0.2,5.8c0,4.3-0.4,10.3,0.5,13.9c1.9,7.6,5,15,11.3,18.2c1.6,0.8,3.1,0.7,5,1.2
	c1.6,0.4,5.1,1,7.4,0.5c1.9-0.4,3.8-1.2,5.8-1.4c0,0.1,0,0.2,0,0.2c0.1,0,0.2,0,0.2,0c-0.1,0.2-0.2,0.5-0.2,0.7
	c-3.1,1.4-6.8,2.5-10.3,3.4c-3,0.7-8.9,1.2-12,0.5c-4.7-1-8.2-0.8-11.8-2.6c-9.8-5.2-13.4-17.6-11.5-33.6c-3.8-2.5-7-5.9-10.8-8.6
	C88.6,119.9,87.8,117.9,85.7,117.6z M217.2,76.1c-0.2,0.6-0.4,0.7-0.7,1.2c-0.6-0.1-0.6-0.1-1-0.2c0.1-0.9,0.1-0.7,0.5-1.2
	C216.6,75.9,216.8,75.9,217.2,76.1z M216.2,78.7c0.1,0,0.2,0,0.2,0c0-0.1,0-0.2,0-0.2c0.5,0.1,0.5,0.1,0.7,0.2
	c0.2,0.3,0.2,0.2,0.2,0.7c-0.4,0-0.8,0-1.2,0C216.2,79.2,216.2,79,216.2,78.7z M416.2,82.3c0.2,7.7-6.3,16.6-9.6,21.4
	c-1.4,2.1-4.1,4.1-4.6,7c3,1.6,6,3.5,8.9,5.3c1.2,0.7,2.3,0.7,2.6,2.4c-2.8,2.8-1.7,14.9-1.7,20.6c0,2.1,0.2,3.8-0.2,5
	c-4.9,2.2-9.9,4.6-14.4,7.4c-2.1,1.3-3.9,4.2-6.7,4.6c-2.4-3.2-8.8-6.2-14.9-4.8c-2.1,0.5-3.7,1.4-6.2,1.4c-0.2-0.4-0.2-0.9-0.2-1.7
	c0.8-0.9,0.9-2.2,1.4-3.4c1.2-2.4,3-5.7,4.6-8.2c1.6-2.6,5.4-6.3,6-9.6c-1.9-1-10-4.7-10.1-6.7c2-0.8,1.7-3.5,1.7-6.2
	c0-5.4,0-10.9,0-16.3c6.5-3.6,13.2-6.7,18-12c1.6,0.8,3,2.2,4.6,2.9c3.6,1.6,11,3.2,14.6,0.5c1.4-1.1,3.2-4,3.8-5.8
	C414.4,84.5,414,82.5,416.2,82.3z M99.4,90.5c0.1,0.5,0.1,0.5,0.2,0.7c0,5,0,9.9,0,14.9c-0.4,0.9-2.5,1.4-3.4,1.9
	c-1.6,1-3.6,2.2-5.3,3.1c-1.2,0.6-2.6,0.9-3.6,1.7c-0.7,0-1-0.1-1.4-0.2c0-6.6,0-13.3,0-19.9c0-2.5,0-5,0-7.4c0.2-0.5,1.3-0.6,1.7-1
	C91.5,84.6,96.4,88.6,99.4,90.5z M370.3,85.4c1,0.4,0.8,1.7,0.7,3.1c-0.6,0.9-0.3,2.2-0.7,3.4c-0.6,1.8-1.7,3.8-2.6,5.5
	c-1.7,3-4,6-6,8.9c-1.2,1.6-3.1,3.1-3.4,5.5c2.6,1.1,11.2,4.3,11.3,7.2c-0.7,1-1.4,3.1-1.2,4.8c0.7,5.1,0.2,13.2,0.2,19.4
	c-5,3.1-10.8,5.5-15.8,8.6c-1.8,1.1-3.4,3.8-5.8,4.1c-1.6-2.4-8.8-6-13.9-4.8c-2.3,0.6-4.6,1.3-7,1.9c-0.2-0.4-0.3-0.4-0.5-1
	c1.4-1.8,1.8-4.5,2.9-6.5c2-3.7,4.6-7.4,7-10.8c1-1.5,1.6-3.1,2.9-4.3c0-0.2,0-0.3,0-0.5c-4-1.5-7.4-3.8-10.8-6
	c0.1-0.2,0.2-0.5,0.2-0.7c2.1-0.5,1.8-2.7,1.7-5.3c0.6-0.9,0.2-3.4,0.2-4.8c0-4,0-8,0-12c4.3-2.1,8.7-4.5,12.5-7.2
	c1.7-1.2,3.2-3.8,5.5-4.3c2.5,3.8,13.2,6.2,18,3.1C368.2,91.3,369.1,88.3,370.3,85.4z M132.7,88.6c2,1.3,8.3,9.3,8.4,12.2
	c-4.8,3.1-3.1,17-3.1,25c0,2.5-0.7,7.3,0.5,8.9c0.7,2.2,3.5,4.2,6.2,4.3c2.5-2,5.5-3.5,7-6.5c0.8-1.7,0-4.7,0-7
	c0.1-4.8,0.2-9.6,0.2-14.4c0-2,0.4-5-0.5-6.2c-1.4-1.3-4.1-1.7-4.3-4.1c1.4-1.1,1.9-3,2.9-4.6c0.7-1.2,1.9-2.2,2.6-3.4
	c0.8-1.2,0.9-2.7,2.6-2.9c4,3.6,10.4,4.6,15.1,7.4c-0.2,0.4,0,0.2-0.2,0.5c-0.9,2.5-3.8,3.4-4.8,5.3c-0.9,1.6-0.2,5.6-0.2,7.7
	c0,6.2,0,12.5,0,18.7c0,2.4-0.6,6.6,0.5,8.2c1.1,2.9,6.4,3,7,5c-1.8,1.1-6.2,5.3-7.4,7c-1.4,1.9-2.5,4.6-5.3,5
	c-1.8-2.5-5.3-3.8-7-6.5c-1.3-2.1-0.2-6.5-1.4-8.4c-3.5,3.8-7.6,7.2-11.8,10.3c-1.6,1.2-2.5,3.2-5,3.4c-0.9-1.4-2.7-2.4-3.8-3.6
	c-2.2-2.2-4.2-4.8-6.5-7c1.1-9,0.5-16.3,0.5-25.4c0-3.6,0.9-10.3-0.2-12.7c-1.8-1.8-3.5-3.7-5.3-5.5c1.6-2.2,4.5-3.5,6.7-5
	C128.2,92.7,130.8,90.6,132.7,88.6z M326.2,131.8c-0.4,6.9-8.3,12.6-12.5,16.3c-1.5,1.4-3.8,4.9-6.2,5c-1-1.2-2.4-1.4-3.8-2.2
	c-3.2-1.7-6.8-3.8-10.1-5.3c-1.6-0.7-3.7-0.7-4.3-2.4c3.1-3.1,0.9-5.8,1.9-10.3c0.6-2.9,0.2-7.2,0.2-10.6c0-6.7,0-13.4,0-20.2
	c3.5-1.6,6.9-3.8,10.1-5.8c1.7-1.1,3.6-1.6,5.3-2.6c2-1.2,4.4-3.6,7.2-3.8c1,1.7,2.7,3,3.8,4.6c1.6,2.2,2.9,4.5,4.6,6.7
	c1.2,1.7,3.3,3.2,3.6,5.8c-7.1,5.8-14.2,11.7-21.4,17.5c0,1.7,0,3.4,0,5c0.7,1.1,0.1,4,0.2,5.3c2.2,0.6,8.9,4.9,11.8,4.1
	c2.5-0.8,5-2.9,6.7-4.6C324.2,133.5,324.5,132,326.2,131.8z M237.4,96.2c-0.2,0.2-0.1,0.1-0.5,0.2c0-0.1,0-0.2,0-0.2
	c-0.2-0.2-0.1-0.1-0.2-0.5c0.2-0.2,0.3-0.4,0.5-0.7c0.3,0,0.6,0,1,0C238,96,238.1,95.9,237.4,96.2z M106.3,95.5c0,0.1,0,0.2,0,0.2
	c-0.7-0.2-0.4,0.1-0.5-0.5C106,95.4,106.2,95.4,106.3,95.5z M395.5,97.2c0,0.3,0,0.6,0,1c-0.7,0-0.3,0.2-0.7,0c-0.2,0-0.3,0-0.5,0
	c0.1-0.9,0.1-0.7,0.5-1.2C395,97,395.3,97.1,395.5,97.2z M398.6,98.2c0.2,0.4,0,0.2,0.2,0.5c-0.1,0.9-0.2,0.9-0.5,1.4
	c-0.6-0.1-0.6-0.1-1-0.2c0.1-0.8,0.3-1.3,0.5-1.9C398.2,98,398.4,98.1,398.6,98.2z M134.4,99.4c0.2-0.9,0-0.7,0.7-1
	c0.2-0.2,0.1-0.1,0.5-0.2c0.3,0.3,0.6,0.5,1,0.7c0,0.3,0,0.6,0,1C135.4,99.8,135,99.7,134.4,99.4z M109.2,99.1
	c-0.4-0.2-0.2,0-0.5-0.2C109.1,99,109,98.9,109.2,99.1z M158.2,99.4c-0.2,0.4,0,0.2-0.2,0.5c-0.2,0.2-0.1,0.1-0.5,0.2
	c-0.3-0.3-0.6-0.5-1-0.7c0-0.2,0-0.3,0-0.5C157.3,99,157.4,99.2,158.2,99.4z M102.5,99.4c0,0.2,0,0.3,0,0.5c-0.2,0-0.5,0-0.7,0
	c0-0.2,0-0.3,0-0.5C102,99.4,102.2,99.4,102.5,99.4z M109.2,100.6c0,0.2,0,0.3,0,0.5c-0.2,0-0.5,0-0.7,0c0.1-0.2,0.2-0.5,0.2-0.7
	C108.9,100.4,109,100.5,109.2,100.6z M306.2,103.4c1.4,2,4.5,7.2,6.2,8.6c-0.9,2.4-6,4.5-7.7,6.7c-0.2,0-0.3,0-0.5,0
	c-0.1-0.6,0.3-1.5,0.2-2.2c-0.4-3.1-0.8-13.6-0.2-16.1C305.4,101.3,305.5,102.4,306.2,103.4z M404.9,102c-2.4,1.7-3.8,5.5-5.5,7.9
	c-1.8,2.4-3.9,4.7-5.8,7.2c-0.6,0.9-1.8,1.2-2.4,2.2c-2.2-0.3-3.7-1.7-5.3-2.6c-0.1-3.4-0.2-7.1-0.2-10.8c0-1.3-0.3-3.5,0.2-4.3
	c0.6-0.2,5,1.8,6.5,2.2c5.5,1.3,8.9-1.8,12.5-2.4C404.9,101.5,404.9,101.8,404.9,102z M356.2,102.2c0.1-0.2,0.2-0.5,0.2-0.7
	C356.8,102.1,356.9,101.9,356.2,102.2z M344.6,103.2c3.4,1.8,7.7,1.7,11.3,0.5c1.6-0.5,3.4-0.5,4.3-1.7c0.3,0,0.6,0,1,0
	c-2.1,4.9-6.2,8.8-9.1,13c-1.2,1.7-2.4,4.3-4.6,5c-1.4-1.4-4.1-1.8-4.8-3.8c-0.5-0.7-0.2-2.5-0.2-3.6c0-3.2-0.7-7.9,0.2-10.6
	C343.7,102.3,344,102.8,344.6,103.2z M130.8,103.2c0-0.2,0-0.3,0-0.5c0.3,0,0.6,0,1,0c0,0.4,0,0.8,0,1.2c-0.1,0-0.2,0-0.2,0
	c0,0.1,0,0.2,0,0.2c-0.3,0-0.6,0-1,0C130.6,103.6,130.6,103.5,130.8,103.2z M223,106.6c-0.1,0.5-0.1,0.5-0.2,0.7c0,0.1,0,0.2,0,0.2
	c-0.6-0.2-0.5-0.2-1-0.5c-0.1-0.4-0.2-0.8-0.2-1.2C222.2,106,222.4,106.3,223,106.6z M298.1,112.3c0.1,0,0.2,0,0.2,0
	c0,0.1,0,0.2,0,0.2c-0.1,0-0.2,0-0.2,0c0,0.1,0,0.2,0,0.2c-1-0.3-1.4-0.8-1.4-1.4C297.2,111.6,297.8,111.7,298.1,112.3z
	 M379.2,113.5c-1.1-0.3-1.4-0.7-2.2-1.2c0-0.2,0-0.3,0-0.5c0.5-0.2,0.7-0.4,1.4-0.5C378.7,112.4,379,112.5,379.2,113.5z M81.1,114
	c-0.2,0.2-0.1,0.1-0.5,0.2c0-0.1,0-0.2,0-0.2c-0.1,0-0.2,0-0.2,0c0.1-0.6,0.1-0.6,0.2-1C81.3,113.5,81.2,113.5,81.1,114z
	 M84.5,113.3c-0.1,0-0.2,0-0.2,0c0,0.1,0,0.2,0,0.2c-0.1,0-0.2,0-0.2,0c0-0.2,0-0.3,0-0.5C84.4,113.2,84.2,113.1,84.5,113.3z
	 M332.2,113c-0.1,0.5-0.1,0.5-0.2,0.7c-0.2,0.2-0.1,0.1-0.5,0.2c-0.1-0.4-0.2-0.4-0.2-1C331.5,113,331.8,113,332.2,113z
	 M379.4,114.7c0-0.1,0-0.2,0-0.2c-0.2-0.5-0.1-0.2,0-0.7C380.1,114.3,380.3,114.3,379.4,114.7z M77,115.4c0,0.2,0,0.3,0,0.5
	c-0.1,0-0.2,0-0.2,0c0-0.2,0-0.3,0-0.5C76.9,115.4,77,115.4,77,115.4z M294.7,116.6c-0.5-0.2-0.2,0.3-0.7-0.2
	C294.2,116.4,294.9,116.2,294.7,116.6z M181.4,117.6c0.1-0.2,0-0.1,0.2,0c0.2,0,0.3,0,0.5,0c0,0.2,0,0.5,0,0.7c-0.3,0-0.6,0-1,0
	C181.3,117.8,181.3,117.9,181.4,117.6z M360.5,117.6c0,0.8,0,1.6,0,2.4c-0.2,0-0.3,0-0.5,0c-0.3-0.8-0.6-1.4-0.7-2.4
	C359.7,117.6,360.1,117.6,360.5,117.6z M159.8,117.8c0,0.2,0,0.3,0,0.5c-0.1,0-0.2,0-0.2,0c0-0.2,0-0.3,0-0.5
	C159.7,117.8,159.8,117.8,159.8,117.8z M155.8,120c-0.1,0-0.2,0-0.2,0c0-0.2,0-0.3,0-0.5C155.7,119.8,155.6,119.6,155.8,120z
	 M221.8,120.5c0,0.1,0,0.2,0,0.2c0.1,0,0.2,0,0.2,0c-0.1,0.6-0.1,0.6-0.2,1c-0.4,0.2-0.2,0-0.5,0.2c-0.9-0.2-0.8-0.4-1.4-0.7
	c0.1-0.6,0.1-0.6,0.2-1C220.6,120.3,221.2,120.4,221.8,120.5z M354.2,121.2c0,0-0.3,0.1-0.2-0.2c-0.1,0-0.2,0-0.2,0
	c0.1-0.2,0.2-0.3,0.2-0.5C354,120.5,354.5,120.9,354.2,121.2z M184.1,121c-0.3,0.8-0.5,0.9-1.2,1.2c-0.1-0.2-0.2-0.5-0.2-0.7
	c0.3-0.2,0.5-0.3,0.7-0.5C183.6,121,183.8,121,184.1,121z M154.3,121.2c0,0.2,0,0.5,0,0.7c-0.6-0.4-0.3,0.1-0.5-0.7
	C154,121.2,154.2,121.2,154.3,121.2z M301.4,121.4c-0.1,0-0.2,0-0.2,0c-0.2,0.3,0,0-0.2,0.2c0-0.2,0-0.3,0-0.5
	C301.4,121.4,301.2,121.2,301.4,121.4z M76.8,123.8c-0.2,0.3-0.5,0.4-0.7,0.7c-0.2,0-0.3,0-0.5,0c0.1-0.8,0.3-0.7,0.5-1.4
	c0.3,0,0.6,0,1,0C76.9,123.6,77,123.6,76.8,123.8z M374.2,145.9c2.1-1.7,4.8-7.3,6.5-9.8c3.1-4.7,7.1-8.6,10.6-13
	c2.7,0.5,5.7,2.7,7.9,4.1c0,3.8,0,7.7,0,11.5c0,1.3,0.3,3.7-0.2,4.6c0,0.2,0,0.3,0,0.5c-2.8-0.5-4.9-2.8-7.7-3.6
	c-7.2-2.2-14.1,2.8-16.3,6.7c-0.2,0-0.5,0-0.7,0C374.2,146.6,374.2,146.2,374.2,145.9z M114.2,123.6c-0.2,0.7-0.3,0.5-0.7,1
	c-0.2,0-0.3,0-0.5,0c0.1-0.8,0.2-0.7,0.5-1.2C113.8,123.4,114,123.5,114.2,123.6z M348.2,140.6c-6-2.1-14.9,2.4-16.1,6
	c-0.2,0.1-0.5,0.2-0.7,0.2c0-0.1,0-0.2,0-0.2c-0.1,0-0.2,0-0.2,0c0.4-2.3,2.5-3.8,3.6-5.5c1.2-2,2-3.9,3.4-5.8
	c1.6-2.2,3.7-4.3,5.3-6.5c1.3-1.7,2.7-4.3,4.8-5c0.2-0.3,1.6,0.6,2.2,1c2,1.1,4.2,2.2,6,3.4c-0.4,5.1-0.3,11.1-0.2,16.6
	C353.5,144.4,350.9,141.6,348.2,140.6z M133.7,125.8c0.1-0.2,0.2-0.5,0.2-0.7c0.6,0.4,0.3-0.1,0.5,0.7
	C134.2,125.8,133.9,125.8,133.7,125.8z M248.4,126.2c0-0.1,0-0.2,0-0.2c0.1,0,0.2,0,0.2,0c0.1,0.4,0.2,0.4,0.2,1c-0.2,0-0.5,0-0.7,0
	C248.3,126.5,248.2,126.5,248.4,126.2z M362.6,129.6c0.2,0,0.5,0,0.7,0c0,0.2,0,0.5,0,0.7c-0.7,0.4-0.9,0.5-1.2,1.2
	c-0.3,0-0.6,0-1,0C361.5,130.3,362.1,130.5,362.6,129.6z M409.7,132c0,0.2,0,0.5,0,0.7c-0.2,0-0.5,0-0.7,0c0-0.2,0-0.5,0-0.7
	C409.2,132,409.4,132,409.7,132z M361,133.4c0,0.1,0,0.2,0,0.2c-0.1,0-0.2,0-0.2,0c0.1-0.2,0.2-0.5,0.2-0.7
	C361.1,133.3,361.3,133.1,361,133.4z M126.5,133.9c0,0.1,0,0.2,0,0.2c0.1,0,0.2,0,0.2,0c0,0.1,0,0.2,0,0.2c-0.1,0-0.2,0-0.2,0
	c-0.2,0.2-0.1,0.1-0.5,0.2c-0.1-0.2-0.2-0.5-0.2-0.7C126,133.9,126.2,133.9,126.5,133.9z M360.5,134.6c-0.1,0.9-0.4,1.1-0.7,1.7
	c-1.6-0.4-0.4-0.9,0.2-1.7C360.2,134.6,360.3,134.6,360.5,134.6z M129.4,138.2c-0.1,0-0.2,0-0.2,0c0,0.1,0,0.2,0,0.2
	c-0.6-0.1-0.6-0.1-1-0.2c-0.2-0.4,0-0.2-0.2-0.5c0.2-1,0.4-0.9,1-1.4C129.7,136.9,129.4,137,129.4,138.2z M135.8,136.6
	c-0.2,0.6-0.2,0.5-0.5,1c-0.2,0-0.3,0-0.5,0c0.1-0.6,0.1-0.6,0.2-1C135.4,136.6,135.6,136.6,135.8,136.6z M216.2,138
	c-0.1,0.2-0.2,0.3-0.2,0.5c-1.2-0.1-1-0.1-0.7-1C215.8,137.7,215.8,137.8,216.2,138z M132,138.2c0,0.1,0,0.2,0,0.2
	c0.1,0,0.2,0,0.2,0c0,0.2,0,0.3,0,0.5c-0.4,0-0.8,0-1.2,0c0.1-0.2,0.2-0.5,0.2-0.7C131.5,138.2,131.8,138.2,132,138.2z M272.4,139.7
	c0.1,0,0.2,0,0.2,0c0.2-0.2,0.1-0.1,0.5-0.2c0,0.1,0,0.2,0,0.2c0.1,0,0.2,0,0.2,0c-0.1,0.5-0.1,0.5-0.2,0.7
	c-0.3,0.2-0.2,0.2-0.7,0.2C272.4,140.3,272.4,140,272.4,139.7z M361.2,141.6c0-0.1,0-0.2,0-0.2c-0.1,0-0.2,0-0.2,0
	c0.1-0.5,0.1-0.5,0.2-0.7c0-0.1,0-0.2,0-0.2c0.1,0,0.2,0,0.2,0c0,0.1,0,0.2,0,0.2c0.2,0,0.3,0,0.5,0c0,0.3,0,0.6,0,1
	C361.7,141.6,361.4,141.6,361.2,141.6z M157.4,141.8c-0.1,0-0.2,0-0.2,0c0-0.2,0-0.3,0-0.5C157.4,141.6,157.3,141.4,157.4,141.8z
	 M82.8,141.8c0,0.1,0,0.2,0,0.2c0.1,0,0.2,0,0.2,0c0,0.2,0,0.3,0,0.5c-0.2,0.2-0.1,0.1-0.2,0.5c-0.4,0.2-0.2,0-0.5,0.2
	c-0.6,0-0.9,0-1.2-0.2c-0.2-0.2-0.1-0.1-0.2-0.5c0.4-0.2,0.9-0.4,1.2-0.7C82.3,141.8,82.6,141.8,82.8,141.8z M358.1,143.5
	c0,0.2,0,0.3,0,0.5c-0.2,0-0.3,0-0.5,0c0-0.2,0-0.3,0-0.5C357.8,143.5,357.9,143.5,358.1,143.5z M357.1,145.7c-0.1,0-0.2,0-0.2,0
	c0-0.2,0-0.3,0-0.5C357.1,145.4,357,145.3,357.1,145.7z M79.2,145.9c0.1,0,0.2,0,0.2,0c-0.2,0.3-0.2,0.3-0.5,0.5c0,0.1,0,0.2,0,0.2
	c-0.1,0-0.2,0-0.2,0c-0.1-0.7-0.1-0.4,0-1C79.1,145.8,79,145.7,79.2,145.9z M164.2,146.2c0,0.1-0.5,1-0.5,0.7c-0.5-0.3,0-0.4,0-0.7
	C163.8,146.2,164,146.2,164.2,146.2z M76.3,147.6c-0.1,0-0.2,0-0.2,0c0,0.1,0,0.2,0,0.2c-0.5-0.1-0.5-0.1-0.7-0.2
	c-0.2-0.1-0.1,0,0-0.2c0-0.2,0-0.3,0-0.5c0.3,0,0.6,0,1,0C76.3,147.1,76.3,147.4,76.3,147.6z M387.8,149.3c0,0.2,0,0.3,0,0.5
	c-0.2,0-0.5,0-0.7,0c0-0.2,0-0.3,0-0.5C387.4,149.3,387.6,149.3,387.8,149.3z M161.3,162.5c7.6-0.2,8.8,5.2,10.8,10.3
	c0,0.1,0,4.5,0,4.6c-0.1,0.4-0.6,0.4-0.7,1c0.1,0.2,0.2,0.3,0.2,0.5c-0.4,0.3-0.9,0.1-1.2,0.5c0,0.3,0,0.6,0,1
	c-0.6,1.2-2.7,3-4.1,3.4c-0.1-0.6,0.2-0.3-0.5-0.5c-1.6,1.5-4.5,1.7-7.7,1.7c0,0.1,0,0.2,0,0.2c0.2,0,0.3,0,0.5,0
	c1.8,1.6,6.5,4.8,8.4,5.3c0.4,0.1,2.4-0.8,2.9-1c0.2,0.6,0.3,0.4,0.5,1c-1.1,1.6-0.7,4.5-3.6,4.8c-1.3-0.8-3.9-0.2-5.3-0.7
	c-3.2-1.2-6.3-3.9-7.9-6.7c-0.1,0-0.2,0-0.2,0c0,0.1,0,0.2,0,0.2c-0.2,0.4,0,0.9-0.2,1.4c0,0.1-0.7,0.5-0.7,0.5
	c0.1,0.6,0.2,1.1,0.2,1.7c-0.3,0.2-0.6,0.3-1,0.5c-0.5,0.8-0.7,2.2-1,3.1c-0.7,0.1-0.8,0.1-1.2,0.5c-1-0.5-0.9-0.5-2.2-0.7
	c0-0.1,0-0.2,0-0.2c0.8-1.3,2.2-7.2,2.4-9.1c-0.1,0-0.2,0-0.2,0c-0.6,2.1-1.3,4.2-1.9,6.2c-0.1-1.6-0.3-0.5-0.5-1.9
	c0.8-0.9,1.3-3.5,1.4-4.8c-0.1,0-0.2,0-0.2,0c0,0.2,0,0.3,0,0.5c-1.5,1.8-1.4,6.1-2.9,8.2c0-0.1,0-0.2,0-0.2
	c-1.4-2.1,0.6-6.6,1.2-8.2c1.6-4.1,2.9-7.4,4.8-11c0.9-1.8,2.5-3.7,2.9-6c-0.1,0-0.2,0-0.2,0c-0.6,0.7-2.3,1.5-3.1,1.9
	c0-0.2,0-0.3,0-0.5c0.5-0.3,0.9-0.7,1.2-1.2c-0.1,0-0.2,0-0.2,0c0,0.1,0,0.2,0,0.2c-0.2,0.5-0.2-0.5-0.2-0.5c0.8-0.4,1.7-1,2.2-1.7
	c-0.1,0-0.2,0-0.2,0c-1.3,1.3-2.5,2.1-3.4,3.8c-0.1,0-0.2,0-0.2,0c0-0.1,0-0.2,0-0.2c-0.2-0.2-0.1-0.1-0.2-0.5c0.8-0.7,1-2,2.2-2.9
	c1.3-0.9,2.6-1.7,3.8-2.6C157.2,163.1,159.7,163.5,161.3,162.5z M239.3,168.2c-2.6,0-6,0.3-7.2,0.5c-0.8,0-1.6,0-2.4,0
	c-0.4,0.2-3.3,6.1-3.6,7c2.2-0.1,3.9,0.1,5.3,0.7c0,0.7,0,2.2,0.2,2.6c-1.6,1.5-6.6,2.1-9.1,2.4c-0.7,2.9-2.6,4.5-2.6,8.2
	c0.8-0.2,1.6-0.3,2.4-0.5c0,0.1,0,0.2,0,0.2c-0.3,0.2-0.3,0.2-0.5,0.5c0.2,0,0.3,0,0.5,0c0-0.1,0-0.2,0-0.2c0.4-0.4,0.2-0.4,0.7-0.7
	c0.3,0.2,0.2,0.1,0.7,0.2c0-0.2,0-0.5,0-0.7c0.6,0,1.3,0,1.9,0c0-1.5,5.4-2,7.2-1.7c0.4,0.8,1.1,0.7,1.2,2.4
	c-2.7,2.8-5.6,5.2-9.8,6.5c-4.1,1.2-10.2-2.6-11.3-4.6c0.5-0.1,0.5-0.1,0.7-0.2c-1-0.6-0.8-2.9-0.5-4.6c0.4-2.2,1.5-4.5,2.2-6.7
	c-0.1,0-0.2,0-0.2,0c0-0.1,0-0.2,0-0.2c-0.3,0.3-0.3,0.4-0.5,1c-0.1,0-0.2,0-0.2,0c0-0.2,0-0.5,0-0.7c0.3-0.3,0.5-0.7,0.7-1.2
	c0.6,0.1,0.5,0.1,1.2,0c-0.1-1.6,3.6-5.4,4.6-7.2c-1,0-2.1,0-3.1,0c-0.5,0.2-0.9-0.1-1.7-0.2c-0.1-0.6-0.2-1.1-0.2-1.7
	c-0.4-0.1-0.8-0.2-1.2-0.2c0-0.4,0-0.8,0-1.2c0.5-0.3,1.1-0.7,1.4-1.2c-0.1,0-0.2,0-0.2,0c-0.2,0.2-0.4,0.3-0.7,0.5
	c0-0.2,0-0.3,0-0.5c1-0.3,1.8-1.1,2.6-1.4c2.6-1.1,4.5-1.5,7-1.7c0,0.1,0,0.2,0,0.2c-0.2,0-0.3,0-0.5,0c-0.7,0.2-1.4,0.5-2.2,0.7
	c0,0.1,0,0.2,0,0.2c0.2,0,0.5,0,0.7,0c0.5-0.4,1.1-0.4,1.9-0.5c0,0.1,0,0.2,0,0.2c0.1,0,0.2,0,0.2,0c0,0.2,0,0.3,0,0.5
	c-0.6,0.2-4,1.2-4.6,1.7c0.3,0,0.6,0,1,0c0.9-0.6,2.4-0.4,3.4-1c0.9-0.5,0.7-1.7,1.9-2.2c0.8,0.7,1.8,0.3,3.1,0
	c2.1-0.4,5.8-1,8.9-0.5c0.3,0.5,0.5,0.6,0.7,1.2c-0.3,0.1-0.2,0-0.2,0.2c0.5,0.9,0.8,1.4,1,2.2c0.8-0.6,1.9-1.2,2.6-1.9
	c-0.1-0.3,2.3-0.8,3.6-1.2c3.9-1.3,12.9-1.3,14.2,2.4c0,0-0.9,0-0.5,0.2c0.2,0,0.3,0,0.5,0c0.7,0.6,1.2,0.8,1.7,1.7
	c0.5-0.1,0.7-0.3,1.2,0c0.3,0.4,0.3,0.7,0.5,1.4c-0.5,0-0.1-0.2-0.5,0c1.1,1.5,1.9,5.1,0.7,7.2c0.1,0,0.2,0,0.2,0
	c0.2-0.2,0.1-0.1,0.5-0.2c0.1-0.9-0.1-0.6,0.5-1c0,0.2,0,0.5,0,0.7c-0.5,0.6-0.7,1.7-1.4,2.2c-0.2-0.3,0,0-0.2-0.2
	c-0.6,3-4.5,3.7-7,4.8c0.1,0.5,0.4,0.2,0,0.5c-0.8,0.9-5,1.9-6.7,1.4c-0.8-0.2-2.5-1.4-3.1-1c-0.6,0.7,0,1.3-0.2,1.9
	c-0.7-0.2-2,3.5-2.2,4.6c-0.1,0.7,0.7,0.6,0.2,1.4c-0.2-0.8,0.1-0.4-0.5-0.7c0,0.2,0,0.3,0,0.5c0.3,0.3,0.4,0.7,0.5,1.2
	c-0.2-0.1-0.3-0.2-0.5-0.2c0,0.1,0,0.2,0,0.2c0.5,0.9-0.7,2.8-1.7,3.1c-0.1-0.5-0.1-0.5-0.2-0.7c-0.3,0.6,0.1,0.2-0.5,0.5
	c-0.2-0.9-0.8-1.4-1.4-1.9c-0.2-2.6,0-4.3,0-6.2c-0.1,0-0.2,0-0.2,0c0,0.2,0,0.3,0,0.5c-0.9,1.3-0.4,3.9-1,5.5
	c-0.2-0.2-0.1-0.1-0.2-0.5c-1.2-1.8,0-4.9,0-6.7c-0.1-3.9,4.2-9.1,4.8-13.4C241.7,171.7,239.7,170.5,239.3,168.2z M328.6,162.5
	c0.6,0.9-0.5,2.9-1,3.8c0.1,0,0.2,0,0.2,0c0-0.1,0-0.2,0-0.2c0.5-0.7,0.6-2.2,1.4-2.6c0.4,0.2,0.3-0.2,0.7,0
	c0.5,0.5,0.3,1.3,0.7,1.9c0.1-0.9-0.1-0.6,0.5-1c0,0.6,0,1.1,0,1.7c1.3,2.1-2.5,9.5-2.9,10.8c-0.4,1.3-0.9,2.1-1.2,3.4
	c-0.1,0-0.2,0-0.2,0c-0.1-0.5-0.1-0.5-0.2-0.7c0,0.2,0,0.3,0,0.5c-1.4,1.1-1.5,2.8-2.4,4.3c-1.2,2-2.5,4.7-4.1,7.2
	c-0.6,1-1.6,1.8-1.9,3.1c-0.2,0-0.3,0-0.5,0c0-0.3,0-0.6,0-1c1.2-1.2,2.7-4.2,3.1-6c-0.1,0-0.2,0-0.2,0c0,0.1,0,0.2,0,0.2
	c-1.3,1.5-2.9,6.9-4.8,7.2c-0.3,0.3-0.3,0.1-0.7,0.5c0-0.3,0.2-1.7,0.2-1.7c-0.3-0.4-0.9-0.2-0.7-1.2c0.5-3,2.8-6,4.1-8.6
	c-0.2,0-0.3,0-0.5,0c0,0.1,0,0.2,0,0.2c-2.4,2.7-3.1,6.9-4.6,10.6c-0.1,0-0.2,0-0.2,0c-0.2-1.5-0.6-3.2,0-5c0.4-1.2,1.2-2.2,1.4-3.6
	c-0.1,0-0.2,0-0.2,0c0,0.2,0,0.3,0,0.5c-0.9,1-1,3.9-2.2,4.6c0-0.4,0-0.8,0-1.2c0.5-0.8,0.3-1.9,0.7-2.9c0.7-1.6,1.9-3.1,2.4-4.8
	c-4-3.1-4.1-10.2-4.1-16.3c0.5-0.3,0.6-0.5,1-1c1.2,1,2.2,1.4,2.6,3.1c0.1,0,0.2,0,0.2,0c0.1-0.5,0.1-0.5,0.2-0.7
	c0.1,1.2,0.6,3,1.2,3.8c0.2,0.2,0.8,0.2,1,0.5c0.3,0.7-0.4,1.2-0.2,1.7c0.1,0.2,0.8,0.4,1,0.7c0.2,0.5-0.3,0.7-0.2,1
	c0.1,0.6,1,2.1,1.4,2.6c0-0.2,0-0.3,0-0.5c1.9-1.5,2.5-4.6,3.8-6.7c0.3-0.5,1.1-0.9,1.4-1.4c1.2-1.8,1.5-3.9,2.6-5.8
	C328.1,162.7,328.3,163.1,328.6,162.5z M304.6,163c0.2,0.8-0.1,0.4,0.5,0.7c0.4-0.2,0.6-0.1,1.4,0c0.4,1,1.7,1.5,2.2,2.4
	c1.6,2.9-0.3,6.2-1,8.9c1.8,0.2,4.1,1.5,4.3,3.4c0.1,0,0.2,0,0.2,0c0,0.1,0,0.2,0,0.2c-0.2,0-0.5,0-0.7,0c-0.2-0.3-0.2-0.3-0.5-0.5
	c0,0.1,0,0.2,0,0.2c0.2,0.2,0.2,0.4,0.5,1c-0.2,0-0.3,0-0.5,0c-0.6-0.4-4.6-0.1-5.3,0.2c-1,0.9-1.1,2.5-1.7,3.8
	c-1.1,2.6-3,5.3-3.8,7.9c-0.7-0.4-0.5-0.2-1.4-0.5c-0.2,0.7-0.4,1.1-0.7,1.7c-0.1,0-0.2,0-0.2,0c0-0.2,0-0.3,0-0.5
	c0.8-0.8,0.8-2.2,1-3.1c-0.1,0-0.2,0-0.2,0c0,0.2,0,0.3,0,0.5c-0.6,0.7-1.2,1.9-1.4,2.9c-0.2,0-0.3,0-0.5,0c0-0.2,0-0.5,0-0.7
	c0.5-0.5,0.8-1.2,1-1.9c-0.1,0-0.2,0-0.2,0c0,0.1,0,0.2,0,0.2c-0.7,0.7-1,2.2-1.4,3.1c-0.1,0-0.2,0-0.2,0c0-0.2,0-0.3,0-0.5
	c0.7-0.9,0.7-2.2,1.2-3.4c1.1-2.6,3.1-5.7,3.6-8.9c-1.4,0-5.9,1-6.5,2.2c0.1,0.5,0.2,0.2-0.2,0.7c-0.3,0.2-0.2,0.1-0.7,0.2
	c0.3,0.8,0.3,0.3,0.2,1.2c-0.1,0-0.2,0-0.2,0c-0.2-0.3-0.2-0.3-0.5-0.5c0,0.2,0,0.3,0,0.5c-0.7,0.9-0.4,1.8-1,2.6
	c-0.2-0.2-0.1-0.1-0.5-0.2c-0.4,1.6-1.7,3.3-2.2,4.8c-0.2,0.8,0.4,1.5,0.2,1.9c-0.1,0.2-1,1.2-1,1.2c-0.5,0.5-0.9,0.7-1.9,0.7
	c-1.3-0.9-3.5-1.4-3.8-3.1c0.2-0.2,0.1-0.1,0.2-0.5c-0.1,0-0.2,0-0.2,0c-0.2,0.4,0,0.2-0.2,0.5c-0.2-4-3.6-5-3.4-7.7
	c1.4-1,1.9-2.3,3.1-3.1c1.4-0.9,3.4-1.1,4.3-2.4c3.2-4.5,5.7-9.4,10.1-12.7c1.7-1.3,3.1-3.5,5.8-3.8c0.2,0.3,0,0,0.2,0.2
	c0,0.1,0,0.2,0,0.2c-0.6,0-0.9,0-1.2,0.2c0,0.4,0.2,0.2-0.2,0.5c-0.6,0.5-1.2,0.5-1.7,1.2c0.1,0,0.2,0,0.2,0
	C300.4,164.1,303,163.2,304.6,163z M304.6,163.9c-1.4,1.2-3.2,1.8-4.8,2.9c-2.1,1.5-8.5,9-9.4,11.5c-0.2,0-0.3,0-0.5,0
	c2-3.9,7.8-11.3,10.8-13.4c0.5-0.3,2.3-0.7,3.1-1.4C304.4,163.7,304.2,163.6,304.6,163.9z M204.2,163.9c0.2,0,0.3,0,0.5,0
	c-0.2,0.6-0.7,1.4-1,2.4c-0.1,0-0.2,0-0.2,0c0-0.2,0-0.5,0-0.7c0.3-0.5,0.1-0.4,0-1C204.1,164.4,203.9,164.4,204.2,163.9z
	 M274.3,163.9c0.5,1-0.4,1.6-0.7,2.6c-0.1,0-0.2,0-0.2,0c0-0.2,0-0.5,0-0.7c0.5-0.6,0.4-0.9,0.5-1.7
	C274.3,164,274.1,164.1,274.3,163.9z M161.5,164.4c-1,0.7-3.3,0.5-4.1,0.7c0-0.1,0-0.2,0-0.2c-0.1,0-0.2,0-0.2,0c0-0.1,0-0.2,0-0.2
	c0.5-0.1,1.7-0.2,2.2-0.5C160.1,164.2,160.8,164.3,161.5,164.4z M229.2,164.2c0,0.1,0,0.2,0,0.2c-0.4,0.2-0.2,0-0.5,0.2
	c-0.3,0-0.6,0-1,0c0-0.1,0-0.2,0-0.2c0.4-0.2,0.2,0,0.5-0.2C228.6,164.2,228.9,164.2,229.2,164.2z M230.6,164.2
	c-0.4,0.2-0.5,0.3-1,0C230,164.2,230.3,164.2,230.6,164.2z M183.1,164.4c1.1,0.5,1.7,0.7,1.9,1.4c-0.2,0.3-0.1,0.2-0.2,0.7
	c0.1,0,0.2,0,0.2,0c0.3-0.6,0.7-0.7,1.2-0.5c0.2,0.3,0.2,0.4,0.2,1c0.2,0.5,0,0.6-0.2,1.2c0.2,0,0.3,0,0.5,0
	c0.3-0.6-0.1-0.2,0.5-0.5c1,2.4,3.2,3.9,4.8,5.8c0.4,0.5,1.2,0.8,1.4,1.4c1.9,5-3.2,10.3-5.5,13.4c-0.9,1.2-1.3,2.4-2.9,2.9
	c0.1-0.2,0.2-0.3,0.2-0.5c-0.1,0-0.2,0-0.2,0c-2.8,4.2-14.4,4.3-12.5-4.1c0.4-1.6,0.2-3.6,0.7-5.3c1.6-4.9,4.1-9.6,7-13.4
	c0.5-0.6,1.2-1,1.7-1.7c-0.1,0-0.2,0-0.2,0c-0.3,0.4-0.2,0.3-0.7,0.5c0-0.1,0-0.2,0-0.2c0.2-0.2,0.1-0.1,0.2-0.5
	C181.9,165.7,182.7,165,183.1,164.4z M221,164.9c0-0.1,0-0.2,0-0.2c0.4-0.2,0.2,0,0.5-0.2C222.2,164.6,221.3,164.8,221,164.9z
	 M205.2,164.9c0.6,0.2,0.4,0.1,0.7,0.5c0.1,0,0.2,0,0.2,0c0.2-0.2,0-0.5,0.2-0.2c0.9,0.5,1.3,1.1,1.4,2.4c-1,1.6-1,4-1.7,5.8
	c-2,4.8-3.6,9.9-5.5,14.4c0.5,0.1,0.5,0.1,0.7,0.2c-0.1,0-0.2,0-0.2,0c-0.2,0.2-0.4,0.3-0.7,0.5c0,0.1,0,0.2,0,0.2
	c0.1,0,0.2,0,0.2,0c0,0.1,0,0.2,0,0.2c1.9-1.2,6.5-0.3,7.7,0.7c-4-0.1-6.9,0.4-8.6,1.9c3.3-0.2,7.2-2,10.6-0.7
	c-0.2,0.6-0.3,0.2-0.5,0.5c-0.1,0.2,0.4,0.8,0.2,1.2c0,0.1,0,0.2,0,0.2c-0.9,0-3.4,0.8-4.8,1.2c-3.3,1-5.2,0.7-7.9,0.7
	c0-0.2,0-0.3,0-0.5c1.1,0,3.3-0.2,4.1-0.7c-2.2,0-3.9,0.5-6,0.2c0,0.1,0,0.2,0,0.2c0.4,0.2,0.2,0,0.5,0.2c-0.4,0-0.8,0-1.2,0
	c-0.2-0.2-0.8-0.3-1-0.5c0.2-0.1,0.5-0.2,0.7-0.2c-0.4-0.6-0.4-1.1-0.7-1.4c-0.4,0.3-0.7,0.5-1,0.2c-0.3-0.2-0.3-0.2-0.5-0.5
	c1-0.4,2.9-0.8,3.4-1.7c-0.7-1.1,0.1-3.4,0.2-4.6c0.6-4.2,3.1-7.9,3.8-11c0.1,0,0.2,0,0.2,0c0,0.1,0,0.2,0,0.2
	c0.2,0.2,0.1,0.1,0.2,0.5c-1,1.4-2,4.6-2.4,6.2c-0.2,1,0.4,1.3-0.2,2.2c-0.2-0.4,0-0.2-0.2-0.5c0,0.2,0,0.5,0,0.7
	c0.2,0.2,0.3,0.5,0.5,0.7c0.3-3.5,2.2-6.6,3.4-9.4C202.9,171.2,203.7,167.4,205.2,164.9z M241,164.9c0.5,0.1,0.5,0.1,0.7,0.2
	C241.2,165,241.2,165.1,241,164.9z M257.5,165.4c-0.1,0-0.2,0-0.2,0c0-0.2,0-0.3,0-0.5C257.5,165.1,257.4,164.9,257.5,165.4z
	 M280.1,190.6c-0.2,1.3-0.2,0.7,0,2.2c-1.5,0-5,1.1-7.4,1.7c-1.8,0.1-3.7,0.2-5.5,0.2c0-0.2,0-0.3,0-0.5c1.3,0,3,0,4.1-0.7
	c-2,0.1-3.8,0.8-5.5,0.2c-0.1,0.6,0.1,0.4-1,0.5c-0.2-0.2-0.8-0.3-1-0.5c0.6-0.3,0.2,0.1,0.5-0.5c-0.6-0.3-0.2,0.1-0.5-0.5
	c0.4-0.2,0.2,0,0.5-0.2c-0.3,0.1-0.6,0.2-1,0.2c0-0.1,0-0.2,0-0.2c0.3-0.2,0.5-0.3,0.7-0.5c-0.7,0.1-1.1,0.4-1.4,0.2
	c-0.2-0.2-0.1-0.1-0.2-0.5c0.9-0.4,2.7-0.8,3.1-1.7c-0.5-0.8-0.1-3.6,0.2-4.8c0.7-2.5,3-10.1,4.3-10.8c0.2-0.3,0,0,0.2-0.2
	c0,0.2,0,0.5,0,0.7c-1.2,1.3-2.4,5.4-2.2,7.2c-0.3,0,0.1-0.2-0.2-0.2c-0.2-0.5-0.2,0.5-0.2,0.5c0.3,0.6,0,0.8,0,1.7
	c0.1,0,0.2,0,0.2,0c0.5-5.3,3.7-10.2,5.5-14.6c0.7-1.6,0.6-4.2,2.4-4.6c0.4,0.6,0.4,0.4,1.2,0.5c0.4,0.9,0.7,1.2,0.7,2.6
	c-0.8,1.3-1.1,4-1.7,5.5c-1.1,3-5.6,12.1-4.8,14.6c-0.6,0.1-0.6,0.1-1,0.2c0.2,0.2,0.1,0.1,0.5,0.2c0.4,0.1,2.8-0.9,4.1-0.5
	c0.1,0,0.6,0.7,0.7,0.7c0.9,0.2,1.8,0.3,2.6,0.5c0,0.1,0,0.2,0,0.2c-1.6,0-3.2,0-4.8,0c-0.6,1-2.8,1.2-3.6,1.9
	C273.1,191.3,276.3,190.2,280.1,190.6z M231.4,165.4c-0.4,0.6-0.9,0.4-1.4,0.7c-0.6,0-1.1,0-1.7,0c0-0.1,0-0.2,0-0.2
	c0.6-0.1,2.1-0.2,2.6-0.5C231,165.4,231.2,165.4,231.4,165.4z M184.3,166.1c-0.1,0-0.2,0-0.2,0c0-0.2,0-0.3,0-0.5
	C184.3,165.8,184.2,165.7,184.3,166.1z M330.7,165.6c0,0.2,0,0.3,0,0.5c-0.1,0-0.2,0-0.2,0c0-0.2,0-0.3,0-0.5
	C330.6,165.6,330.6,165.6,330.7,165.6z M228,166.1c-0.4-0.2-0.2,0-0.5-0.2C227.9,166,227.8,165.9,228,166.1z M203.3,166.3
	c0.2,0.3,0.1,0.2,0.2,0.7c-0.1,0-0.2,0-0.2,0C203.3,166.8,203.3,166.6,203.3,166.3z M255.4,166.8c0.7,0,1,0.1,1.4,0.2
	c0,0.1,0,0.2,0,0.2c-2.1-0.4-3.7-0.5-6.5-0.5c0.4-0.2,1.5-0.2,1.9-0.5C253.5,166.3,254.5,166.2,255.4,166.8z M273.8,166.3
	c0.2,0.2,0.1,0.1,0.2,0.5c-0.1,0-0.2,0-0.2,0C273.8,166.6,273.8,166.5,273.8,166.3z M297.6,166.3c0,0.1,0,0.2,0,0.2
	c-2.8,1-5,6.2-7.4,7.9c0,0.1,0,0.2,0,0.2c-0.1,0-0.2,0-0.2,0c1-1.6,2.2-3,3.4-4.6c1.1-1.4,2.8-2.3,3.8-3.8
	C297.3,166.3,297.4,166.3,297.6,166.3z M220.1,166.8c-0.4-0.2-0.2,0-0.5-0.2C220,166.7,219.8,166.6,220.1,166.8z M223.9,166.6
	c0,0.1,0,0.2,0,0.2c-1.6,0.3-4.1,0.6-5.3,1.4c-0.3,0-0.6,0-1,0c0-0.1,0-0.2,0-0.2c1.7-0.8,4-0.3,5.8-1.4
	C223.6,166.6,223.8,166.6,223.9,166.6z M273.1,166.6c0.2,0.3,0.1,0.2,0.2,0.7c-0.1,0-0.2,0-0.2,0C273.1,167,273.1,166.8,273.1,166.6
	z M166.6,168.2c0.3,1,1.3,2.7,0.7,3.6c0.3,0.7,0.1,0.2,0.7,0.5c-0.6,3.5-4.7,6.1-7.7,7.4c0-0.1,0-0.2,0-0.2c-0.1,0-0.2,0-0.2,0
	c0.3-0.6,0.9-0.3,1.4-1.2c0.2,0,0.3,0,0.5,0c0-0.1,0-0.2,0-0.2c-2.1,0.4-4,2.6-6.2,1.9c0,0.1,0,0.2,0,0.2c-0.1,0-0.2,0-0.2,0
	c0.2-1.6,1-2.6,1.4-3.8c1.1-3.1,1.8-6.2,1.9-9.6C162.4,166.8,164.1,167.6,166.6,168.2z M237.8,166.8c-0.4,0.3-1,0.3-1.4,0
	C236.9,166.8,237.4,166.8,237.8,166.8z M239.3,167.5c-0.3-0.2-0.3-0.2-0.5-0.5c-0.2,0-0.3,0-0.5,0c0-0.1,0-0.2,0-0.2
	c0.3,0,0.6,0,1,0C239.3,167,239.3,167.3,239.3,167.5z M203,167c0.2,0.2,0.1,0.1,0.2,0.5c-0.1,0-0.2,0-0.2,0
	C203,167.4,203,167.2,203,167z M242.9,167.3c-0.4-0.2-0.2,0-0.5-0.2C242.8,167.2,242.6,167.1,242.9,167.3z M257.8,167
	c0,0.1,0,0.2,0,0.2c-0.3,0.2,0,0-0.2,0.2c-0.2,0-0.3,0-0.5,0c0-0.2,0-0.3,0-0.5C257.3,167,257.5,167,257.8,167z M296.4,171.8
	c0,0.1,0,0.2,0,0.2c-0.1,0-0.2,0-0.2,0c1.1-2.1,3.1-3.2,4.3-5C300.6,167.1,297.1,171.2,296.4,171.8z M325.2,171.4c0,0.1,0,0.2,0,0.2
	c-0.1,0-0.2,0-0.2,0c0.7-1.5,1.8-2.9,2.2-4.6C327.4,167.8,325.9,170.6,325.2,171.4z M272.9,167.3c0.2,0.2,0.1,0.1,0.2,0.5
	c-0.1,0-0.2,0-0.2,0C272.9,167.6,272.9,167.4,272.9,167.3z M202.8,167.5c0.3,0.5,0.1,0.5,0,1.2c-0.1,0-0.2,0-0.2,0
	c0-0.2,0-0.5,0-0.7C202.8,167.8,202.6,167.9,202.8,167.5z M179.8,167.8c0.2,0.5,0.1,0.2,0,0.7c-0.1,0-0.2,0-0.2,0
	C179.6,168.2,179.7,168,179.8,167.8z M259,168.2c-0.6-0.2-0.4-0.1-0.7-0.5C258.5,167.9,258.7,168,259,168.2z M272.6,167.8
	c0.3,0.5,0.1,0.5,0,1.2c-0.1,0-0.2,0-0.2,0c0-0.2,0-0.5,0-0.7C272.6,168,272.5,168.2,272.6,167.8z M179.3,168.5
	c0.1,0.5,0.2,0.2-0.2,0.7c0,0.1,0,0.2,0,0.2c-0.1,0-0.2,0-0.2,0C179,168.9,179,168.9,179.3,168.5z M301.4,170.9c0,0-0.1-0.9-0.2-0.5
	c-0.3,0,0.1,0.3-0.2,0.2c0-0.2,0-0.3,0-0.5c0.8-0.4,1.4-0.9,1.9-1.7c0.1,0,0.2,0,0.2,0c-0.2,0.3-0.2,0.3-0.5,0.5c0,0.3,0,0.6,0,1
	c1.2-0.5,1.8-1.5,2.4-1c0.4-0.3,0,0,0.2-0.5c0.1,0,0.2,0,0.2,0c-0.1,0.5-0.2,1-0.2,1.4c-0.2-0.2-0.1-0.1-0.2-0.5
	c-0.6,0.4-2,4.3-2.2,5.3c-0.9,0.1-2.6,0.1-3.8,1c-0.4,0-0.8,0-1.2,0c0.7-1.2,1.8-3.8,3.4-4.1C301.3,171.1,301.3,171.1,301.4,170.9z
	 M202.3,168.7c0.3,0.5,0.1,0.5,0,1.2c-0.1,0-0.2,0-0.2,0c0-0.2,0-0.5,0-0.7C202.3,169,202.2,169.1,202.3,168.7z M259.4,171.8
	c-0.4-0.2-0.4-0.3-1-0.5c-0.2-0.2-0.1-0.1-0.5-0.2c0,0.1,0,0.2,0,0.2c-0.1,0-0.2,0-0.2,0c0.4,1.1,0.9,1.3,1.9,1.9
	c-0.5,0.7-1,1.4-1.9,1.7c0,0.2,0,0.3,0,0.5c0.5-0.3,1.7-1.2,1.9-1c0.2,0,0.3,0,0.5,0c-0.4,1.7-2.2,2.2-3.1,3.4c-0.2,0-0.3,0-0.5,0
	c0.2,0.2,0.1,0.1,0.5,0.2c-0.4,0.4-2.1,2.2-3.1,1.7c-0.2,0-0.3,0-0.5,0l0.2,0.2c0,0.1,0,0.2,0,0.2c-1.3-0.5-1.5,0.7-2.6,0
	c-0.2,0.3-0.2,0.2-0.2,0.7c-0.2,0-0.5,0-0.7,0c0.2-0.2,0.1-0.1,0.5-0.2c-0.3-0.2-0.6-0.2-1.2-0.2c0-0.1,0-0.2,0-0.2
	c0.1,0,0.2,0,0.2,0c1.1-1.2,5.8-1.6,7.2-3.4c0.3-0.2,0,0,0.2-0.2c-0.1,0-0.2,0-0.2,0c-0.1-0.2-0.7,0.4-1,0.7c-0.2,0-0.3,0-0.5,0
	c0.3-0.7,1.1-1.2,1.9-1.4c0-0.7-0.2-0.3,0-0.7c0-0.2,0-0.3,0-0.5c-1.3,0.6-3.7,1.4-4.8,2.4c-0.2,0-0.3,0-0.5,0c0-0.1,0-0.2,0-0.2
	c2-0.5,3.3-1.7,4.8-2.4c0.3-0.6,0.1-0.5,0.5-1.2c-0.1,0-0.2,0-0.2,0c-1-0.3-1.2,0.8-1.9,1.4c-1,0.9-4.7,1.7-6.2,2.9
	c-0.1,0-0.2,0-0.2,0c-0.1-1.1-0.4-1.8,0.2-2.6c0-0.2,0-0.5,0-0.7c-0.1,0-0.2,0-0.2,0c-0.3,1.2-0.6,2.4-1,3.6c-0.2,0-0.3,0-0.5,0
	c0.7-1.9,1.6-4.3,1.7-6.5c0.4,0.7,0.1,1.4,0,2.4c0.2-0.2,0.3-0.8,0.5-1c0-1.3-0.2-1.8,0.5-1.9c-0.2-0.7,0.1-0.4-0.5-0.5
	c0-0.5,0-1,0-1.4C252.9,168.6,258,169.3,259.4,171.8z M272.2,169c0.3,0.5,0.1,0.5,0,1.2c-0.1,0-0.2,0-0.2,0c0-0.2,0-0.5,0-0.7
	C272.1,169.2,272,169.4,272.2,169z M324,169c0.2,0.2,0.1,0.1,0.2,0.5c-0.1,0-0.2,0-0.2,0C324,169.3,324,169.1,324,169z M182.6,169.4
	c-0.3,1.4-1.5,3.2-2.4,4.1c0,0.2,0,0.3,0,0.5c-0.1,0-0.2,0-0.2,0c0.3-1.8,1.6-3,2.2-4.6C182.3,169.4,182.5,169.4,182.6,169.4z
	 M244.8,169.4c0,0.2,0,0.5,0,0.7c-0.2,0-0.5,0-0.7,0c0-0.2,0-0.5,0-0.7C244.3,169.4,244.6,169.4,244.8,169.4z M323.8,169.4
	c0.2,0.5,0.1,0.2,0,0.7c-0.1,0-0.2,0-0.2,0C323.6,169.9,323.7,169.7,323.8,169.4z M177.4,175.9c-0.1,0-0.2,0-0.2,0
	c0.8-2.3,2.8-4.1,3.8-6.2c0.1,0,0.2,0,0.2,0c-0.8,1.5-2.1,3.7-2.9,4.6c-0.3,0.2,0.1,0,0.2,0.2c0,0.1,0,0.2,0,0.2
	c-0.2,0.1-0.5,0.2-0.7,0.2c0.2,0.6,0.5,0.8,0.5,1c-0.2,0.6-0.3,1-0.7,1.4c0,0.1,0,0.2,0,0.2c-0.1,0-0.2,0-0.2,0
	c0.3-0.7,0.6-1,0.7-1.9C177.6,175.8,177.6,175.7,177.4,175.9z M152.9,174.5c0,0.1,0,0.2,0,0.2c-0.1,0-0.2,0-0.2,0
	c0.5-1.7,1.5-3,1.9-4.8C155,170.9,153.6,173.7,152.9,174.5z M272.4,169.9c0.2,0.2,0.1,0.1,0.2,0.5c-0.1,0-0.2,0-0.2,0
	C272.4,170.2,272.4,170.1,272.4,169.9z M149.5,170.2c0.4,0.7,0.1,3-0.2,3.8c-0.1,0-0.2,0-0.2,0c0-0.9,0-1.8,0-2.6
	C149.3,171,149.4,170.7,149.5,170.2z M150.7,170.2c0.1,0.1,0.5,0.3,0.2,0.7C150.4,170.4,150.9,170.5,150.7,170.2z M178.1,170.2
	c0.2,0,0.3,0,0.5,0c-0.2,0.3-0.2,0.3-0.5,0.5c0,0.1,0,0.2,0,0.2c-0.1,0-0.2,0-0.2,0C177.9,170.6,178,170.4,178.1,170.2z
	 M201.6,170.2c0.2,0,0.3,0,0.5,0c0,0.1,0,0.2,0,0.2C201.7,170.2,201.8,170.4,201.6,170.2z M271.7,170.2c0.2,0.2,0.1,0.1,0.2,0.5
	c-0.1,0-0.2,0-0.2,0C271.7,170.5,271.7,170.3,271.7,170.2z M157.7,170.9c0,0.2,0,0.3,0,0.5c-0.1,0-0.2,0-0.2,0c0-0.2,0-0.3,0-0.5
	C157.5,170.9,157.6,170.9,157.7,170.9z M177.6,170.9c0.3,0.5-0.2,1.3-0.7,1.7c0,0.1,0,0.2,0,0.2c-0.1,0-0.2,0-0.2,0
	c0-0.2,0-0.3,0-0.5C177.1,171.9,177.3,171.4,177.6,170.9z M271.2,170.9c0.2,0,0.3,0,0.5,0c0,0.1,0,0.2,0,0.2
	C271.3,171,271.4,171.1,271.2,170.9z M249.8,171.1c0.5,0.8-0.2,3.2-0.7,3.8C249.4,173.7,249.6,172.4,249.8,171.1z M222.5,171.4
	c-0.6,1.9-2.4,3.6-3.4,5.3c-0.1,0-0.2,0-0.2,0c0.7-2,2.6-3.1,3.1-5.3C222.2,171.4,222.3,171.4,222.5,171.4z M322.6,171.4
	c0.2,0.2,0.1,0.1,0.2,0.5c-0.1,0-0.2,0-0.2,0C322.6,171.7,322.6,171.5,322.6,171.4z M187,172.1c3.8,1.3,2.8,7.8,0.2,10.3
	c0,0,0.1,0.9,0.2,0.5c0-0.1,0-0.2,0-0.2c0.1,0,0.2,0,0.2,0c-0.4,0.8-0.7,1.4-1.4,1.9c0,0.1,0,0.2,0,0.2c-0.1,0-0.2,0-0.2,0
	c0.2-0.4,0.4-0.5,0.7-0.7c0-0.2,0-0.3,0-0.5c-2.7,1.7-3.9,4.7-7.2,6c0-0.1,0-0.2,0-0.2c-0.1,0-0.2,0-0.2,0c-0.1-6,2.8-11.9,5.3-15.1
	c0.6-0.8-0.3-2,1-1.9c-0.1-0.2-0.2-0.5-0.2-0.7C185.7,171.7,186.3,171.7,187,172.1z M260.2,172.3c-0.2,0.4,0,0.2-0.2,0.5
	c0-0.1,0-0.2,0-0.2c-0.1,0-0.2,0-0.2,0c0.1-0.6,0.1-0.6,0.2-1C260.2,171.9,260.4,172,260.2,172.3z M322.3,171.8
	c0.2,0.2,0.1,0.1,0.2,0.5c-0.1,0-0.2,0-0.2,0C322.3,172.2,322.3,172,322.3,171.8z M322.1,176.9c0,0.1,0,0.2,0,0.2
	c-0.1,0-0.2,0-0.2,0c1-1.8,1.9-3.5,2.9-5.3C325.1,172.4,322.8,176.2,322.1,176.9z M157.2,172.3c0,0.2,0,0.3,0,0.5
	c-0.1,0-0.2,0-0.2,0c0-0.2,0-0.3,0-0.5C157,172.3,157.1,172.3,157.2,172.3z M257.3,172.6c0.2,0.3,0.1,0.2,0.2,0.7
	c-0.1,0-0.2,0-0.2,0C257.3,173,257.3,172.8,257.3,172.6z M299,173c-0.1-0.1-0.6-0.1-0.5-0.5C298.6,172.6,299.2,172.8,299,173z
	 M176.4,172.8c0.3,0.6-0.4,1.4-0.7,2.2c-0.1,0-0.2,0-0.2,0c0-0.2,0-0.5,0-0.7C175.9,173.9,176.1,173.4,176.4,172.8z M321.8,172.8
	c0.3,0.6-1.5,3.3-2.2,3.8c-0.2,0.3,0,0-0.2,0.2c0-0.2,0-0.3,0-0.5C320.2,175.2,321,174,321.8,172.8z M200.6,173
	c0.2,0.2,0.1,0.1,0.2,0.5c-0.1,0-0.2,0-0.2,0C200.6,173.4,200.6,173.2,200.6,173z M270.5,173c0.2,0.2,0.1,0.1,0.2,0.5
	c-0.1,0-0.2,0-0.2,0C270.5,173.4,270.5,173.2,270.5,173z M149.8,173.3c0.2,0.3,0.1,0.2,0.2,0.7c-0.1,0-0.2,0-0.2,0
	C149.8,173.8,149.8,173.5,149.8,173.3z M264.2,174.7c-0.1,0-0.2,0-0.2,0c-0.1-0.4-0.2-0.8-0.2-1.2
	C264,173.8,264.1,174.2,264.2,174.7z M199.9,173.8c0.5,0.1,0.5,0.1,0.7,0.2c-0.2,0.2-0.1,0.1-0.2,0.5
	C200.2,174.3,200.1,174.1,199.9,173.8z M270,173.8c0.2,0,0.3,0,0.5,0C270.2,174.1,270.4,174.1,270,173.8z M150,174
	c0.2,0.3,0.4,0.9,0.5,1.2c-0.2,0-0.3,0-0.5,0c-0.2-0.4,0-0.2-0.2-0.5C149.8,174.5,149.9,174.2,150,174z M170.4,174.5
	c-0.1,0-0.2,0-0.2,0c0-0.2,0-0.3,0-0.5C170.4,174.2,170.2,174.1,170.4,174.5z M259.4,174.5c0.2,0.2,0.1,0.1,0.2,0.5
	c-0.1,0-0.2,0-0.2,0C259.4,174.8,259.4,174.6,259.4,174.5z M298.3,174.5c0.2,0,0.3,0,0.5,0c-0.2,0.3,0,0-0.2,0.2c0,0.1,0,0.2,0,0.2
	C298.4,174.7,298.5,174.9,298.3,174.5z M316.6,175c-0.1,0-0.2,0-0.2,0c0-0.2,0-0.3,0-0.5C316.5,174.7,316.4,174.5,316.6,175z
	 M152.9,175.2c-0.2,0.1-0.3,0.2-0.5,0.2c0,0.2,0,0.3,0,0.5c-0.1,0-0.2,0-0.2,0c0.1-0.3,0.2-0.6,0.2-1
	C152.8,175.1,152.6,175,152.9,175.2z M259,175c0.2,0,0.3,0,0.5,0c-0.2,0.3,0,0-0.2,0.2C259,175.2,258.7,175.2,259,175z M169.2,177.6
	c-0.1,0-0.2,0-0.2,0c-0.1-0.2-0.2-0.5-0.2-0.7c0.4-0.4,0.6-1,0.7-1.7C169.9,176,169.4,176.7,169.2,177.6z M248.9,175.2
	c0.3,0.5,0.1,0.8,0,1.4c-0.1,0-0.2,0-0.2,0c0-0.2,0-0.5,0-0.7C248.8,175.7,248.8,175.7,248.9,175.2z M175,175.4c0.2,0,0.3,0,0.5,0
	c0,0.1,0,0.2,0,0.2C175,175.5,175.2,175.6,175,175.4z M258.2,175.4c0.2,0,0.3,0,0.5,0c-0.3,0.7-0.2,0.6-0.5,1.2
	C257.7,175.9,257.9,176.2,258.2,175.4z M301.7,175.4c-0.4,0.2-0.5,0.3-1,0C301,175.4,301.4,175.4,301.7,175.4z M317,175.9
	c0,0.2,0,0.5,0,0.7c-0.3-0.3-0.4-0.7-0.5-1.2C316.8,175.6,316.8,175.7,317,175.9z M157.2,175.7c0.2,0,0.3,0,0.5,0
	c-0.2,0.5-0.3,1-0.5,1.4c-0.1,0-0.2,0-0.2,0c0-0.2,0-0.5,0-0.7C157.1,176.1,157.1,176.2,157.2,175.7z M300.5,175.7
	c-0.7,0.5-2.2,0.4-2.9,1c-0.2,0-0.3,0-0.5,0c0-0.1,0-0.2,0-0.2c0.7-0.2,1.4-0.5,2.2-0.7C299.7,175.7,300.1,175.7,300.5,175.7z
	 M257.3,175.9c0.4,0.6,0.5,0.4-0.2,0.7c0-0.1,0-0.2,0-0.2C257.2,176.2,257.1,176.3,257.3,175.9z M151.9,176.6c0,0.2,0,0.3,0,0.5
	c-0.1,0-0.2,0-0.2,0c0.1-0.3,0.2-0.6,0.2-1C152.1,176.5,152.2,176.3,151.9,176.6z M177.1,176.6c-0.1,0-0.2,0-0.2,0
	c0-0.2,0-0.3,0-0.5C177.1,176.4,177,176.2,177.1,176.6z M304.8,176.2c0,0.2,0,0.3,0,0.5c-0.2,0.2-0.3,0.3-0.5,0.5c0,0.1,0,0.2,0,0.2
	c-0.2,0-0.3,0-0.5,0c0.2-0.4,0.3-0.6,0.5-1.2C304.5,176.2,304.6,176.2,304.8,176.2z M307,176.6c0-0.2,0-0.3,0-0.5
	c0.8,0.1,1.6,0.2,2.4,0.2c0.4,0.6,0.6,1,1.4,1.2c0,0.2,0,0.3,0,0.5c-1.4-0.6-2.1-0.6-4.1-0.5C306.8,177,306.8,176.9,307,176.6z
	 M163.4,176.6c0.2,0,0.3,0,0.5,0c0,0.1,0,0.2,0,0.2c-0.1,0-0.2,0-0.2,0c0,0.1,0,0.2,0,0.2C163.5,176.9,163.6,177.1,163.4,176.6z
	 M300,176.6c-0.4,0.2-0.5,0.3-1,0C299.4,176.6,299.7,176.6,300,176.6z M301.9,176.6c-0.1,0.5-0.1,0.5-0.2,0.7
	c-0.8,1.3-4.5,1.1-5.8,1.9c-0.2,0-0.3,0-0.5,0c0-0.1,0-0.2,0-0.2c0.1,0,0.2,0,0.2,0c1-1.2,4.8-1.6,5.8-2.4
	C301.6,176.6,301.8,176.6,301.9,176.6z M248.4,177.4c-0.1,0-0.2,0-0.2,0c0-0.2,0-0.3,0-0.5C248.4,177.1,248.2,176.9,248.4,177.4z
	 M298.8,176.9c-0.2,0.2-0.8,0.3-1,0.5c-0.2,0-0.5,0-0.7,0c0.2-0.2,0.5-0.3,0.7-0.5C298.2,176.9,298.5,176.9,298.8,176.9z
	 M156.7,177.1c0.2,0.3,0.1,0.2,0.2,0.7c-0.1,0-0.2,0-0.2,0C156.7,177.6,156.7,177.4,156.7,177.1z M163,177.1
	c0.2,0.2,0.1,0.1,0.2,0.5c-0.6,0.2-0.6,0.3-1.2,0.5c0-0.1,0-0.2,0-0.2c0.1,0,0.2,0,0.2,0C162.5,177.5,162.7,177.4,163,177.1z
	 M176.6,178.1c-0.2,0-0.3,0-0.5,0c0.1-0.3,0.2-0.6,0.2-1C176.7,177.5,176.5,177.6,176.6,178.1z M192,180c-0.4-0.6-0.5-2-0.5-2.9
	C192.2,177.5,192.1,178.9,192,180z M228.2,177.1c-0.4,0.3-1.2,0.3-1.7,0C227.1,177.1,227.7,177.1,228.2,177.1z M255.1,177.1
	c0,0.2,0,0.3,0,0.5c-0.2,0.1-0.5,0.2-0.7,0.2c0.2-0.2,0.3-0.5,0.5-0.7C255,177.1,255,177.1,255.1,177.1z M317.8,178.3
	c0,0.2,0,0.5,0,0.7c-0.1,0-0.2,0-0.2,0c-0.2-0.6-0.3-1.3-0.5-1.9C317.3,177.4,317.5,178,317.8,178.3z M229.7,177.4
	c-0.6,1-2.2,0.9-3.1,1.4c-0.9,0-1.8,0-2.6,0c0.5-0.7,0.7-0.6,0.7-1.2c1,0.2,3.6,0.4,4.6-0.2C229.4,177.4,229.5,177.4,229.7,177.4z
	 M215.5,177.6c0.2,0.5,0.1,0.2,0,0.7c-0.1,0-0.2,0-0.2,0C215.4,178.1,215.4,177.8,215.5,177.6z M287.5,178.3c0,0.1,0,0.2,0,0.2
	c-0.1,0-0.2,0-0.2,0c0.2-0.3,0.3-0.6,0.5-1C287.9,177.9,287.8,177.9,287.5,178.3z M156.5,177.8c0.2,0.3,0.1,0.2,0.2,0.7
	c-0.1,0-0.2,0-0.2,0C156.5,178.3,156.5,178.1,156.5,177.8z M255.1,178.3c0.2,0,0.3,0,0.5,0c0,0.1,0,0.2,0,0.2
	C255.2,178.4,255.4,178.5,255.1,178.3z M218.6,178.6c0,0.1,0,0.2,0,0.2c-0.1,0-0.2,0-0.2,0c-0.4,0.9-0.8,0.7-1.4,1.2
	c-0.1,0-0.2,0-0.2,0c0.2-0.4,0.5-0.8,0.7-1.2c0.5-0.1,0.5-0.1,0.7-0.2C218.3,178.6,218.5,178.6,218.6,178.6z M255.8,178.6
	c0.2,0,0.3,0,0.5,0c0,0.1,0,0.2,0,0.2C255.9,178.6,256.1,178.8,255.8,178.6z M289.9,179c-0.1,0-0.2,0-0.2,0c0,0.1,0,0.2,0,0.2
	c-0.1,0-0.2,0-0.2,0c0-0.2,0-0.3,0-0.5C289.9,179,289.7,178.8,289.9,179z M321.4,179.3c-0.2,0.7-0.5,1.2-1,1.7c0,0.1,0,0.2,0,0.2
	c-0.1,0-0.2,0-0.2,0c0.2-1,0.5-1.1,0.7-1.9C321,179.3,321.2,179.3,321.4,179.3z M289,180c0.1-0.2,0.2-0.3,0.2-0.5
	C289.2,179.5,289.4,179.7,289,180z M303.6,179.5c-1,2.1-1.8,5.3-3.4,7c0,0.2,0,0.3,0,0.5c-0.1,0-0.2,0-0.2,0
	c0.7-2.7,2.5-4.6,2.9-7.4C303.1,179.5,303.4,179.5,303.6,179.5z M322.1,180.5c0,0.1,0,0.2,0,0.2c-0.1,0-0.2,0-0.2,0
	c0.2-0.3,0.3-0.6,0.5-1C322.5,180.1,322.4,180.1,322.1,180.5z M289.2,180.2c0,0.1,0,0.2,0,0.2c-0.1,0-0.2,0-0.2,0
	c-0.2,0.4,0,0.2-0.2,0.5c0,0.1,0,0.2,0,0.2c-0.2,0-0.3,0-0.5,0c0.2-0.6,0.2-0.5,0.5-1C288.9,180.2,289,180.2,289.2,180.2z
	 M217,180.7c-0.6,0.9-0.6,2.9-1.7,3.8c0,0.2,0,0.3,0,0.5c-0.1,0-0.2,0-0.2,0c0.2-0.6,0.3-1,0.7-1.4c0-0.2,0-0.5,0-0.7
	c-0.2,0.2-0.3,0.4-0.5,0.7c-0.1,0-0.2,0-0.2,0c0.3-1.1,0.9-1.7,1.2-2.9C216.5,180.7,216.7,180.7,217,180.7z M295.4,181
	c-0.3,0.2,0,0-0.2,0.2c0,0-0.9-0.1-0.5-0.2c0.1,0,0.2,0,0.2,0c0-0.1,0-0.2,0-0.2C295.4,180.9,295.2,180.8,295.4,181z M260.6,181
	c0.2,0.2,0.1,0.1,0.2,0.5c-0.6,0.2-0.8,0.3-1.2,0.7c-0.2,0-0.3,0-0.5,0c0-0.1,0-0.2,0-0.2c0.1,0,0.2,0,0.2,0
	C259.8,181.6,260.3,181.3,260.6,181z M179.3,181.7c-0.1,0-0.2,0-0.2,0c0-0.2,0-0.3,0-0.5C179.2,181.4,179.1,181.3,179.3,181.7z
	 M185.5,189.4c0,0.1,0,0.2,0,0.2c-0.1,0-0.2,0-0.2,0c1.7-2.7,4.4-5,5.3-8.4C191.2,182.5,186.7,188.6,185.5,189.4z M187.9,181.9
	c0.1-0.2,0.2-0.3,0.2-0.5C188.2,181.4,188.3,181.6,187.9,181.9z M198,181.4c0.2,0.2,0.1,0.1,0.2,0.5c-0.1,0-0.2,0-0.2,0
	C198,181.8,198,181.6,198,181.4z M321.1,181.9c0.1-0.2,0.2-0.3,0.2-0.5C321.4,181.4,321.5,181.6,321.1,181.9z M269.3,182.2
	c0,0.2,0,0.3,0,0.5c-0.1,0-0.2,0-0.2,0c0.1-0.3,0.2-0.6,0.2-1C269.4,182,269.6,181.8,269.3,182.2z M179,182.4c-0.1,0-0.2,0-0.2,0
	c0-0.2,0-0.3,0-0.5C179,182.2,178.9,182,179,182.4z M199.7,181.9c-0.5,0.9-0.8,2.4-1,3.6c-0.2,0-0.3,0-0.5,0c0.2-1.4,0.7-2.3,1-3.6
	C199.4,181.9,199.5,181.9,199.7,181.9z M320.9,182.6c0,0.1,0,0.2,0,0.2c-0.1,0-0.2,0-0.2,0c0.1-0.2,0.2-0.5,0.2-0.7
	C321,182.5,321.2,182.3,320.9,182.6z M195.6,182.4c0.2,0.2,0.1,0.1,0.2,0.5c-0.1,0-0.2,0-0.2,0C195.6,182.7,195.6,182.6,195.6,182.4
	z M257.5,182.4c0.3,0,0.6,0,1,0c0,0.1,0,0.2,0,0.2c-0.1,0-0.2,0-0.2,0C257.7,182.8,258,182.9,257.5,182.4z M179,183.1
	c-0.1-0.1-0.6-0.1-0.5-0.5C178.6,182.7,179.2,182.9,179,183.1z M188.6,183.8c-0.1,0-0.2,0-0.2,0c0.2-0.4,0.5-0.8,0.7-1.2
	C189.3,183,188.9,183.3,188.6,183.8z M257,182.6c0.2,0,0.3,0,0.5,0c0,0.1,0,0.2,0,0.2C257.1,182.7,257.3,182.8,257,182.6z
	 M284.2,183.1c-1.2,1.1-2.5,2.3-3.8,3.1c0-0.1,0-0.2,0-0.2c-0.1,0-0.2,0-0.2,0c0.2-2.2,2.6-2.2,3.8-3.4
	C284.1,182.9,284,182.7,284.2,183.1z M187,182.9c0.2,0.5,0.1,0.2,0,0.7c-0.1,0-0.2,0-0.2,0C186.8,183.4,186.9,183.1,187,182.9z
	 M268.3,185.8c0,0.1,0,0.2,0,0.2c-0.1,0-0.2,0-0.2,0c0.2-0.7,0.5-2,0.7-3.1C269.3,183.5,269,185,268.3,185.8z M319.2,183.4
	c-0.1,0-0.2,0-0.2,0c0-0.2,0-0.3,0-0.5C319.2,183.1,319,182.9,319.2,183.4z M195.4,183.1c0.2,0.3,0.1,0.2,0.2,0.7
	c-0.1,0-0.2,0-0.2,0C195.4,183.6,195.4,183.4,195.4,183.1z M316.6,183.1c-0.4,0.9-1,1.5-1.2,2.6c-0.1,0-0.2,0-0.2,0
	c0.2-1.2,0.7-1.6,1-2.6C316.2,183.1,316.4,183.1,316.6,183.1z M178.6,183.4c0,0.2,0,0.3,0,0.5c-0.1,0-0.2,0-0.2,0c0-0.2,0-0.3,0-0.5
	C178.4,183.4,178.5,183.4,178.6,183.4z M265.2,183.4c0.2,0.3,0.1,0.2,0.2,0.7c-0.1,0-0.2,0-0.2,0
	C265.2,183.8,265.2,183.6,265.2,183.4z M187.7,184.1c-0.1,0-0.2,0-0.2,0c-0.2,0.4,0,0.2-0.2,0.5c0,0.1,0,0.2,0,0.2
	c-0.1,0-0.2,0-0.2,0c0.2-0.3,0.3-0.6,0.5-1C187.4,183.8,187.9,183.8,187.7,184.1z M316.3,191.3c0,0.1,0,0.2,0,0.2
	c-0.1,0-0.2,0-0.2,0c1.3-2.6,2.7-5.1,3.8-7.7C320.1,184.3,317,190.5,316.3,191.3z M187.7,184.8c0.2-0.2,0.3-0.5,0.5-0.7
	C188.8,184.2,187.8,184.8,187.7,184.8z M154.6,185c0,0-0.7-0.7-0.7-0.7C154,184.4,154.7,184.7,154.6,185z M178.3,184.8
	c-0.1,0-0.2,0-0.2,0c0-0.2,0-0.3,0-0.5C178.3,184.6,178.2,184.4,178.3,184.8z M238.3,184.6c0.2,0.3,0.1,0.2,0.2,0.7
	c-0.1,0-0.2,0-0.2,0C238.3,185,238.3,184.8,238.3,184.6z M285.6,187.9c0,0.1,0,0.2,0,0.2c-0.1,0-0.2,0-0.2,0c0-0.1,0-0.2,0-0.2
	c-0.1,0-0.2,0-0.2,0c0.1-1.6,0.6-2.2,1.4-3.1C286.8,185.4,286.1,187.3,285.6,187.9z M324.2,184.8c0.2,0.2,0.1,0.1,0.2,0.5
	c-0.1,0-0.2,0-0.2,0C324.2,185.1,324.2,185,324.2,184.8z M184.1,187.2c0,0.1,0,0.2,0,0.2c-0.1,0-0.2,0-0.2,0
	c0.6-0.8,1.3-1.6,1.9-2.4C186.2,185.4,184.6,186.9,184.1,187.2z M321.1,187.2c0,0.1,0,0.2,0,0.2c-0.1,0-0.2,0-0.2,0
	c0.3-0.6,0.6-1.3,1-1.9C322.1,186.1,321.6,186.7,321.1,187.2z M158.4,190.6c0.9,0.6,1.8,0.8,2.4,1.7c-3-1.5-4.4-4.3-7-6
	c0-0.2,0-0.3,0-0.5C155.4,187.4,156.9,189,158.4,190.6z M198.5,186c-0.1,0-0.2,0-0.2,0c0,0.1,0,0.2,0,0.2c-0.1,0-0.2,0-0.2,0
	c0-0.2,0-0.3,0-0.5C198.4,185.9,198.2,185.8,198.5,186z M323.5,185.8c0.2,0,0.3,0,0.5,0c0,0.2,0,0.3,0,0.5c-0.2,0-0.3,0-0.5,0
	C323.5,186.1,323.5,185.9,323.5,185.8z M238.1,186c0.1,0.1,0.5,0.1,0.2,0.5C238.1,186.4,237.6,186.1,238.1,186z M237.8,186.7
	c0.2,0.2,0.1,0.1,0.2,0.5c-0.1,0-0.2,0-0.2,0C237.8,187,237.8,186.9,237.8,186.7z M290.4,187.2c0,0.1,0,0.2,0,0.2
	c-0.1,0-0.2,0-0.2,0c0.1-0.2,0.2-0.5,0.2-0.7C290.6,187.1,290.7,186.8,290.4,187.2z M177.8,188.4c-0.2-0.3-0.2-0.8-0.2-1.4
	C177.8,187.3,177.8,187.7,177.8,188.4z M322.8,187.2c0.2,0,0.3,0,0.5,0c-0.2,0.3-0.3,0.6-0.5,1c-0.1,0-0.2,0-0.2,0
	c0-0.2,0-0.3,0-0.5C322.8,187.4,322.6,187.6,322.8,187.2z M202.3,187.4c2.5-0.1,6.3-0.1,7.2,1.4c-0.2,0-0.3,0-0.5,0
	c-0.6-0.3-1.2,0-1.7-0.2c0.4-0.2,0.2,0,0.5-0.2C207.3,188.4,202.6,187.9,202.3,187.4z M272.2,187.4c2.5-0.1,6.3-0.1,7.2,1.4
	c-0.2,0.2-0.3,0.3-0.5,0.5c-0.4-0.3-1.3-0.4-1.7-0.7c0.4-0.2,0.2,0,0.5-0.2C276.8,188.4,272.5,187.9,272.2,187.4z M184.1,187.9
	c-0.4,0.2-0.8,0.5-1.2,0.7c0.2-0.3,0.5-0.6,0.7-1C184,187.8,183.8,187.7,184.1,187.9z M201.6,187.7c0.2,0,0.3,0,0.5,0
	c0,0.1,0,0.2,0,0.2C201.7,187.8,201.8,187.9,201.6,187.7z M271.4,187.7c0.2,0,0.3,0,0.5,0c0,0.1,0,0.2,0,0.2
	C271.5,187.8,271.7,187.9,271.4,187.7z M322.3,188.2c0.2,0.2,0.1,0.1,0.2,0.5c-0.1,0-0.2,0-0.2,0
	C322.3,188.5,322.3,188.3,322.3,188.2z M187,188.9c0.1-0.2,0.2-0.3,0.2-0.5C187.2,188.4,187.4,188.5,187,188.9z M278.9,188.6
	c-0.4,0.2-0.3,0.2-0.7,0C278.4,188.6,278.6,188.6,278.9,188.6z M322.1,188.6c0.2,0.2,0.1,0.1,0.2,0.5c-0.1,0-0.2,0-0.2,0
	C322.1,189,322.1,188.8,322.1,188.6z M208.1,188.9c0.6,0,0.7,0,1,0.2C208.5,189.1,208.4,189.1,208.1,188.9z M239.8,188.9
	c0.2,0.2,0.1,0.1,0.2,0.5c-0.1,0-0.2,0-0.2,0C239.8,189.2,239.8,189,239.8,188.9z M181.7,189.6c0.1-0.2,0.2-0.3,0.2-0.5
	C181.9,189.1,182.1,189.3,181.7,189.6z M321.8,189.1c0.2,0.5,0.1,0.2,0,0.7c-0.1,0-0.2,0-0.2,0c0-0.2,0-0.3,0-0.5c0.1,0,0.2,0,0.2,0
	C321.8,189.3,321.8,189.2,321.8,189.1z M154.1,189.4c0.8,0.2,0.9,0.4,1.2,1.2c0.1,0,0.2,0,0.2,0c0,0.1,0,0.2,0,0.2
	c-0.2,0-0.3,0-0.5,0C154.8,190.2,154.4,190,154.1,189.4z M187.7,189.4c0.3,0.4,0.2,0.1,0,0.5c-0.3,0.5-0.5,0.8-1.2,1
	C186.9,190.3,187.3,189.8,187.7,189.4z M196.3,190.3c-0.2-0.3-0.2-0.2-0.2-0.7C196.3,189.9,196.2,189.8,196.3,190.3z M213.4,190.1
	c-0.1,0-0.2,0-0.2,0c0-0.2,0-0.3,0-0.5C213.3,189.8,213.2,189.7,213.4,190.1z M244.8,189.8c0.2,0.2,0.1,0.1,0.2,0.5
	c-0.1,0-0.2,0-0.2,0C244.8,190.2,244.8,190,244.8,189.8z M321.4,189.8c0.2,0.2,0.1,0.1,0.2,0.5c-0.1,0-0.2,0-0.2,0
	C321.4,190.2,321.4,190,321.4,189.8z M223,190.1c0,0.2,0,0.3,0,0.5c-0.2,0-0.3,0-0.5,0c0-0.2,0-0.3,0-0.5
	C222.6,190.1,222.8,190.1,223,190.1z M284.9,190.1c-0.1,0.8-0.3,2.2-0.7,2.9c0,0.2,0,0.3,0,0.5c-0.1,0-0.2,0-0.2,0
	c0.1-0.9,0.2-1.9,0.2-3.4C284.4,190.1,284.6,190.1,284.9,190.1z M299.8,190.6c-0.1,0-0.2,0-0.2,0c0-0.2,0-0.3,0-0.5
	C299.7,190.3,299.6,190.1,299.8,190.6z M321.1,190.3c0.2,0.2,0.1,0.1,0.2,0.5c-0.1,0-0.2,0-0.2,0
	C321.1,190.6,321.1,190.5,321.1,190.3z M155.5,190.8c0.9,0.3,4.9,3.5,5.3,4.3c-0.2,0-0.3,0-0.5,0
	C158.8,193.7,156.3,192.9,155.5,190.8z M237.4,191c0.3,0.4,0.3,1,0,1.4C237.4,192,237.4,191.5,237.4,191z M320.6,191
	c0.2,0,0.3,0,0.5,0c-0.1,0.2-0.2,0.5-0.2,0.7c-0.2,0-0.3,0-0.5,0c0-0.1,0-0.2,0-0.2C320.6,191.3,320.5,191.5,320.6,191z
	 M312.5,191.5c0.2,0,0.3,0,0.5,0c0,0.1,0,0.2,0,0.2C312.5,191.6,312.7,191.7,312.5,191.5z M147.4,191.8c0.3,0.4,0.3,0.8,0,1.2
	C147.4,192.6,147.4,192.2,147.4,191.8z M200.6,192c-0.4-0.2-0.2,0-0.5-0.2C200.6,191.9,200.4,191.8,200.6,192z M270.5,192
	c-0.4-0.2-0.2,0-0.5-0.2C270.4,191.9,270.2,191.8,270.5,192z M298.6,191.8c0.7,0.2,0.9-0.2,1.2,0.5c-0.4,0.3-0.5,0.5-0.7,1
	c-0.6,0-0.2,0-1,0.2c0-0.1,0-0.2,0-0.2C298.4,192.8,298.5,192.4,298.6,191.8z M184.3,192c0.2,0,0.3,0,0.5,0c0,0.1,0,0.2,0,0.2
	c-0.1,0-0.2,0-0.2,0C184.4,192.3,184.1,192.3,184.3,192z M269.3,192.2c-0.4-0.2-0.2,0-0.5-0.2C269.2,192.2,269,192,269.3,192.2z
	 M320.2,192c0.2,0.2,0.1,0.1,0.2,0.5c-0.1,0-0.2,0-0.2,0C320.2,192.3,320.2,192.2,320.2,192z M161.5,193c-0.1,0-0.2,0-0.2,0
	c-0.1-0.2-0.2-0.5-0.2-0.7C161.4,192.6,161.3,192.4,161.5,193z M193.2,192.5c0.2,0,0.3,0,0.5,0c0,0.1,0,0.2,0,0.2
	c-0.2,0-0.3,0-0.5,0C193.2,192.6,193.2,192.6,193.2,192.5z M180.5,192.7c-0.4,0.2-0.3,0.2-0.7,0C180,192.7,180.2,192.7,180.5,192.7z
	 M205.2,192.7c0,0.1,0,0.2,0,0.2c-0.5-0.1-0.5,0.3-0.5-0.2C204.9,192.7,205,192.7,205.2,192.7z M274.3,193.2c0-0.1,0-0.2,0-0.2
	c0.4-0.2,0.2,0,0.5-0.2C275.4,192.9,274.6,193.1,274.3,193.2z M276.2,193c-0.4-0.2-0.2,0-0.5-0.2C276.2,192.9,276,192.8,276.2,193z
	 M202.8,193.4c-0.4-0.2-0.2,0-0.5-0.2C202.7,193.4,202.6,193.2,202.8,193.4z M263.3,193.2c0.2,0,0.3,0,0.5,0c0,0.1,0,0.2,0,0.2
	c-0.2,0-0.3,0-0.5,0C263.3,193.4,263.3,193.3,263.3,193.2z M272.6,193.4c-0.4-0.2-0.2,0-0.5-0.2
	C272.6,193.4,272.4,193.2,272.6,193.4z M197,193.7c-0.4-0.2-0.2,0-0.5-0.2C197,193.6,196.8,193.5,197,193.7z M267.1,193.4
	c-0.4,0.2-0.3,0.2-0.7,0C266.6,193.4,266.9,193.4,267.1,193.4z M161,194.9c0.5,0.2,1,0.3,1.4,0.5c0,0.1,0,0.2,0,0.2
	c-0.4,0-0.8,0-1.2,0C160.9,194.9,161.1,195.6,161,194.9z"/>
</svg>
